<svg xmlns="http://www.w3.org/2000/svg" id="SvgjsSvg60545" width="4096" height="1524.1276794842008" version="1.1" xmlns:xlink="http://www.w3.org/1999/xlink" xmlns:svgjs="http://svgjs.com/svgjs"><defs id="SvgjsDefs60546"></defs><g id="SvgjsG60547" transform="translate(328, 328) scale(34.4)" opacity="1"><defs id="SvgjsDefs27328"><linearGradient id="SvgjsLinearGradientcDN_nIBXbD" gradientUnits="userSpaceOnUse" x1="-9.851141285458544" y1="298.0566842221366" x2="521.85114128546" y2="213.84331577786315"><stop id="SvgjsStop27332" stop-color="#dde3e7" offset="0"></stop><stop id="SvgjsStop27333" stop-color="#0264e6" offset="1"></stop></linearGradient></defs><g id="SvgjsG27329" transform="scale(0.203846235640094)" opacity="1"><g id="SvgjsG27330" class="BMDLHdvOi" transform="translate(0, 0) scale(1)" light-content="false" fill="#7cd619"><path d="M0 0 h 127.39404939112467 v 5 h -127.39404939112467 Z M0 0 h 5 v 123.80051892154755 h -5 Z M127.39404939112467 123.80051892154755 h -0 v -5 h 0 ZM25.478809878224936 123.80051892154755 h -25.478809878224936 v -5 h 25.478809878224936 Z M127.39404939112467 123.80051892154755 h -5 v -0 h 5 ZM127.39404939112467 61.900259460773775 h -5 v -61.900259460773775 h 5 Z" fill-rule="nonzero"></path></g><g id="SvgjsG27334" class="mOXBoQwrQ8" transform="translate(9.060396929286643, 5.135968884164962) scale(0.23924304443020689)" light-content="false" fill="url(#SvgjsLinearGradientcDN_nIBXbD)"><path d="M403.8 127c0 3.3 2.7 6 6 6H448c3.3 0 6-2.7 6-6s-2.7-6-6-6h-38.1c-3.4 0-6.1 2.7-6.1 6zm-8.3-39.8c1.3 0 2.6-.4 3.6-1.2l38.1-28.6c2.6-2 3.1-5.8 1-8.4-2-2.5-5.6-3-8.2-1.2l-38.1 28.6c-2.7 2-3.2 5.7-1.2 8.4 1.2 1.6 2.9 2.4 4.8 2.4zm-3.8 90.1l.2.2 38.1 28.6c2.7 1.9 6.4 1.3 8.4-1.4 1.9-2.6 1.3-6.2-1.2-8.2l-38.1-28.6c-2.6-2-6.4-1.6-8.4 1s-1.6 6.4 1 8.4zM71.7 127c0-3.3-2.7-6-6-6H27.5c-3.3 0-6 2.7-6 6s2.7 6 6 6h38.1c3.4 0 6.1-2.7 6.1-6zm4.7 40.9l-38.1 28.6c-2.7 2-3.2 5.7-1.2 8.4s5.7 3.2 8.4 1.2l38.1-28.6c2.7-2 3.2-5.7 1.2-8.4s-5.8-3.2-8.4-1.2zm7.2-91.5L45.4 47.9C42.7 46 39 46.6 37 49.3c-1.9 2.6-1.3 6.2 1.2 8.2L76.4 86c2.6 2 6.4 1.5 8.4-1.2 1.9-2.6 1.4-6.4-1.2-8.4zm193.9 167c4 0 7.9-1.1 11.3-3.3-5.3-6.1-8.2-13.9-8.2-21.9-.1-3.3 2.5-6.1 5.8-6.2 3.3-.1 6.1 2.5 6.2 5.8v.4c0 12 9.7 21.7 21.7 21.7s21.7-9.7 21.7-21.7v-6.1c-2 .1-2.9.2-4.3.2-3.3 0-6-2.7-6.1-6 0-3.3 2.6-6 5.9-6 17 0 30.7-13.8 30.7-30.7s-13.8-30.7-30.7-30.7c-3.3 0-6-2.7-6-6s2.7-6 6-6c6.5 0 12.9 1.5 18.7 4.3 8.6-7.1 9.8-19.8 2.7-28.4-1.3-1.5-2.8-2.9-4.4-4-.3-.2-.7-.4-1-.6v.1c-1.7 2.9-5.3 3.8-8.2 2.2s-3.8-5.3-2.2-8.2c8.5-14.7 3.4-33.5-11.3-41.9-10.6-6.1-23.7-5.4-33.5 1.9-2.7 2-6.4 1.4-8.4-1.3s-1.4-6.4 1.3-8.4c.9-.7 1.8-1.3 2.8-1.9 4.3-8.3 1.1-18.5-7.1-22.8-8.3-4.3-18.5-1.1-22.8 7.1-1.3 2.4-1.9 5.1-1.9 7.9v189c-.2 11.9 9.4 21.5 21.3 21.5zm5.9-149.9c2.4-2.3 6.2-2.3 8.5.1 1.7 1.8 4.2 2.6 6.7 2.3 4.7-6.8 13.2-10 21.2-7.9 3.2.8 5.1 4.1 4.3 7.3-.8 3.2-4.1 5.1-7.3 4.3-4.2-1.1-8.4 1.5-9.5 5.7-.5 1.9-.2 3.9.7 5.7 1.6 2.9.5 6.6-2.4 8.2-2.9 1.6-6.6.5-8.2-2.4-1.5-2.7-2.3-5.8-2.4-8.9-4.5-.5-8.6-2.6-11.8-5.8-2.2-2.5-2.2-6.3.2-8.6zm-4.2 70.5c3.5-2.5 7.5-4 11.7-4.4-.4-5.9 1.5-11.7 5.2-16.3 2-2.6 5.8-3.1 8.4-1 2.6 2 3.1 5.8 1 8.4l-.1.1c-2.5 3.1-3.2 7.3-1.9 11.1.1 0 .1.1.2.1 9 4.5 14.2 14.3 12.9 24.3-.4 3.3-3.4 5.6-6.7 5.2-3.3-.4-5.6-3.4-5.2-6.7.8-6.4-3.7-12.3-10.1-13.2-1.7-.2-3.5-.1-5.2.5-1.1.4-2.2.9-3.2 1.6-2.7 1.9-6.5 1.2-8.4-1.5-1.8-2.6-1.2-6.3 1.4-8.2zM402 316.5v6.4c0 13.3 10.7 24 24 24.1h30v-54h-30c-13.3 0-24 10.3-24 23.5zm-220.7-98.3c0-3.3 2.7-6 6-6s6 2.7 6 6c0 8.1-2.9 15.8-8.2 21.9 10.1 6.3 23.3 3.2 29.6-6.9 2.1-3.4 3.3-7.4 3.3-11.4v-189c0-9.3-7.6-16.9-16.9-16.9-9.3 0-16.9 7.6-16.9 16.9 0 2.7.7 5.4 1.9 7.8.9.6 1.9 1.2 2.8 1.9 2.7 1.9 3.3 5.7 1.4 8.4s-5.7 3.3-8.4 1.4l-.1-.1c-13.7-10.1-32.9-7.1-42.9 6.5-7.2 9.8-8 23-1.9 33.5 1.7 2.9.7 6.5-2.2 8.2s-6.5.7-8.2-2.2v-.1c-.3.2-.7.4-1 .6-9.3 6.1-11.9 18.6-5.7 27.9 1.1 1.7 2.4 3.2 4 4.4 5.8-2.8 12.2-4.3 18.7-4.3 3.3 0 6 2.7 6 6s-2.7 6-6 6c-17 0-30.7 13.7-30.7 30.7s13.7 30.7 30.7 30.7c3.3 0 6 2.7 6 6-.1 3.3-2.8 6-6.1 6-1.4 0-2.2-.1-4.2-.2v6.1c0 11.9 9.7 21.6 21.6 21.6 11.7.3 21.4-9.4 21.4-21.4zM155.5 81c-.9-3.2 1-6.5 4.2-7.3h.1c8-2.1 16.5 1.1 21.2 7.9 2.5.4 5-.5 6.7-2.3 2.3-2.4 6.1-2.4 8.5-.1 2.4 2.3 2.4 6.1.1 8.5-3.1 3.2-7.3 5.3-11.8 5.8-.1 3.1-.9 6.2-2.4 8.9-1.6 2.9-5.3 3.9-8.2 2.3-2.9-1.6-3.9-5.2-2.3-8.1 2.1-3.8.7-8.5-3.1-10.6-.7-.4-1.4-.7-2.2-.8-1.1-.2-2.3-.2-3.5.1-3.2.8-6.5-1.1-7.3-4.3zm15.8 95.4c-.7 1-1.2 2-1.6 3.2-.6 1.7-.7 3.5-.5 5.2.4 3.3-1.9 6.3-5.2 6.7-3.3.4-6.3-1.9-6.7-5.2-1.3-10 3.9-19.7 12.9-24.3.1 0 .1-.1.2-.1 1.3-3.8.6-8-1.9-11.1-2.1-2.6-1.7-6.3.8-8.4s6.3-1.7 8.4.8l.1.1c3.7 4.6 5.5 10.4 5.2 16.3 4.2.4 8.3 1.9 11.7 4.4 2.7 1.9 3.3 5.7 1.4 8.4s-5.7 3.3-8.4 1.4c-5.2-3.8-12.6-2.7-16.4 2.6zM490.5 303c0-3.3-2.7-6-6-6H462v12h22.5c3.3 0 6-2.7 6-6zm-6 27H462v12h22.5c3.3 0 6-2.7 6-6s-2.7-6-6-6zM339 370.6v65.9c0 26.2-21.3 47.5-47.5 47.5S244 462.7 244 436.5V396h-12v40.5c0 32.9 26.6 59.5 59.5 59.5s59.5-26.7 59.5-59.5v-65.9c0-24.8 20.1-44.9 44.9-44.9h.1v-12c-31 0-57 25.5-57 56.9z"></path><path d="M294 374.4V371h-16.7c-3.3 0-6-2.7-6-6s2.7-6 6-6H294v-18h-72c-3.3 0-6-2.7-6-6s2.7-6 6-6h72v-18H182v18h18c3.3 0 6 2.7 6 6s-2.7 6-6 6h-18v18h73.3c3.3 0 6 2.7 6 6s-2.7 6-6 6H182v3.1c-.2 8 6.2 14.7 14.2 14.9h82.5c8.3.2 15.1-6.4 15.3-14.6zM309.2 251l-142.5.3c8.6 14.5 13.7 30.9 14.6 47.7h112.8c1.1-17 6.3-33.5 15.1-48z"></path></g><g id="SvgjsG27335" class="text" transform="translate(303.43456191937673, 84.20025946077378) scale(1 1)" light-content="false" fill="#333333"><path d="M-154.49 -17.04L-154.49 0L-143.39 0L-143.39 -3.17L-150.89 -3.17L-150.89 -7.01L-144.19 -7.01L-144.19 -10.18L-150.89 -10.18L-150.89 -13.88L-143.51 -13.88L-143.51 -17.04Z M-140.66 -11.91L-139.76 -9.33C-139.19 -9.6 -138.54 -9.83 -137.8 -10.02C-137.06 -10.21 -136.3 -10.3 -135.52 -10.3C-134.68 -10.3 -134.1 -10.15 -133.79 -9.86C-133.49 -9.57 -133.33 -9.11 -133.33 -8.5C-133.33 -8.25 -133.36 -7.96 -133.4 -7.62C-133.58 -7.65 -133.9 -7.71 -134.35 -7.78C-134.81 -7.85 -135.26 -7.89 -135.72 -7.89C-137.68 -7.89 -139.15 -7.52 -140.11 -6.78C-141.08 -6.04 -141.56 -4.95 -141.56 -3.51C-141.56 -2.97 -141.46 -2.48 -141.26 -2.02C-141.05 -1.57 -140.77 -1.17 -140.4 -0.84C-140.04 -0.51 -139.6 -0.25 -139.09 -0.07C-138.58 0.11 -138.01 0.19 -137.4 0.19C-136.37 0.19 -135.54 -0.01 -134.89 -0.41C-134.24 -0.82 -133.7 -1.31 -133.28 -1.87L-132.99 -1.87L-132.43 0.02L-129.65 0.02C-129.83 -0.51 -129.96 -1.07 -130.04 -1.66C-130.13 -2.24 -130.17 -2.84 -130.17 -3.46C-130.17 -4.37 -130.13 -5.23 -130.07 -6.04C-130 -6.85 -129.97 -7.67 -129.97 -8.5C-129.97 -9.18 -130.05 -9.8 -130.2 -10.36C-130.36 -10.92 -130.61 -11.4 -130.97 -11.8C-131.33 -12.19 -131.81 -12.5 -132.42 -12.71C-133.03 -12.92 -133.78 -13.03 -134.67 -13.03C-135.81 -13.03 -136.91 -12.92 -137.97 -12.71C-139.03 -12.5 -139.93 -12.23 -140.66 -11.91ZM-136.2 -2.53C-136.77 -2.53 -137.22 -2.68 -137.56 -2.97C-137.89 -3.26 -138.05 -3.7 -138.05 -4.29C-138.05 -4.76 -137.84 -5.15 -137.42 -5.47C-137 -5.78 -136.35 -5.94 -135.47 -5.94C-135.31 -5.94 -135.13 -5.93 -134.93 -5.92C-134.72 -5.9 -134.52 -5.88 -134.32 -5.84C-134.11 -5.81 -133.93 -5.78 -133.76 -5.75C-133.59 -5.71 -133.46 -5.68 -133.38 -5.65L-133.38 -4.19C-133.59 -3.8 -133.92 -3.42 -134.38 -3.07C-134.83 -2.71 -135.44 -2.53 -136.2 -2.53Z M-118.89 -9.67L-118.41 -12.81C-118.97 -12.99 -119.48 -13.07 -119.91 -13.07C-120.61 -13.07 -121.23 -12.9 -121.78 -12.54C-122.32 -12.18 -122.76 -11.67 -123.08 -11.01L-123.4 -11.01L-123.76 -12.78L-126.44 -12.78L-126.44 0L-123.03 0L-123.03 -8.11C-122.89 -8.63 -122.58 -9.06 -122.12 -9.4C-121.66 -9.74 -121.07 -9.91 -120.35 -9.91C-119.87 -9.91 -119.38 -9.83 -118.89 -9.67Z M-113.07 -4.48L-113.07 -17.04L-116.48 -17.04L-116.48 -2.53C-116.48 -1.49 -116.21 -0.75 -115.67 -0.29C-115.12 0.16 -114.34 0.39 -113.32 0.39C-112.68 0.39 -112.07 0.32 -111.48 0.18C-110.89 0.04 -110.43 -0.1 -110.1 -0.24L-110.52 -2.9C-110.79 -2.8 -111.03 -2.73 -111.23 -2.69C-111.44 -2.65 -111.65 -2.63 -111.88 -2.63C-112.68 -2.63 -113.07 -3.25 -113.07 -4.48Z M-103.67 -5.7L-106.28 -12.78L-110.39 -12.78L-104.55 0.07C-104.66 0.5 -104.8 0.83 -104.95 1.08C-105.11 1.34 -105.27 1.53 -105.45 1.67C-105.63 1.81 -105.83 1.9 -106.04 1.95C-106.25 2 -106.47 2.02 -106.69 2.02C-106.95 2.02 -107.21 1.98 -107.45 1.9L-108.15 4.53C-107.88 4.67 -107.55 4.78 -107.17 4.86C-106.79 4.93 -106.39 4.97 -105.96 4.97C-105.33 4.97 -104.78 4.83 -104.32 4.54C-103.86 4.26 -103.44 3.85 -103.07 3.31C-102.69 2.78 -102.35 2.13 -102.03 1.36C-101.71 0.6 -101.38 -0.26 -101.02 -1.22L-96.78 -12.78L-100.27 -12.78L-102.43 -5.7L-102.9 -3.65L-103.14 -3.65Z M-85.97 -4.48L-85.97 -17.04L-89.38 -17.04L-89.38 -2.53C-89.38 -1.49 -89.11 -0.75 -88.57 -0.29C-88.02 0.16 -87.24 0.39 -86.22 0.39C-85.58 0.39 -84.97 0.32 -84.38 0.18C-83.79 0.04 -83.33 -0.1 -83 -0.24L-83.42 -2.9C-83.69 -2.8 -83.93 -2.73 -84.14 -2.69C-84.34 -2.65 -84.55 -2.63 -84.78 -2.63C-85.58 -2.63 -85.97 -3.25 -85.97 -4.48Z M-70.32 -1.17L-71.49 -3.31C-71.81 -3.08 -72.28 -2.86 -72.89 -2.64C-73.5 -2.42 -74.18 -2.31 -74.94 -2.31C-76.21 -2.31 -77.12 -2.58 -77.68 -3.1C-78.24 -3.63 -78.56 -4.45 -78.64 -5.55L-70.12 -5.55C-70.03 -5.99 -69.96 -6.41 -69.92 -6.82C-69.88 -7.22 -69.86 -7.6 -69.86 -7.94C-69.86 -8.93 -70.01 -9.76 -70.33 -10.43C-70.65 -11.11 -71.06 -11.64 -71.58 -12.04C-72.1 -12.44 -72.7 -12.72 -73.36 -12.89C-74.03 -13.06 -74.7 -13.15 -75.38 -13.15C-77.48 -13.15 -79.1 -12.58 -80.25 -11.43C-81.4 -10.29 -81.98 -8.6 -81.98 -6.38C-81.98 -4.29 -81.47 -2.64 -80.45 -1.44C-79.42 -0.24 -77.82 0.37 -75.63 0.37C-74.54 0.37 -73.52 0.22 -72.57 -0.09C-71.62 -0.39 -70.87 -0.75 -70.32 -1.17ZM-75.43 -10.47C-74.54 -10.47 -73.9 -10.21 -73.51 -9.69C-73.12 -9.17 -72.96 -8.47 -73.02 -7.57L-78.52 -7.57C-78.44 -8.42 -78.16 -9.11 -77.67 -9.65C-77.18 -10.2 -76.44 -10.47 -75.43 -10.47Z M-66.91 -11.91L-66.01 -9.33C-65.44 -9.6 -64.79 -9.83 -64.05 -10.02C-63.31 -10.21 -62.55 -10.3 -61.77 -10.3C-60.93 -10.3 -60.35 -10.15 -60.04 -9.86C-59.73 -9.57 -59.58 -9.11 -59.58 -8.5C-59.58 -8.25 -59.6 -7.96 -59.65 -7.62C-59.83 -7.65 -60.15 -7.71 -60.6 -7.78C-61.06 -7.85 -61.51 -7.89 -61.97 -7.89C-63.93 -7.89 -65.4 -7.52 -66.36 -6.78C-67.33 -6.04 -67.81 -4.95 -67.81 -3.51C-67.81 -2.97 -67.71 -2.48 -67.51 -2.02C-67.3 -1.57 -67.02 -1.17 -66.65 -0.84C-66.29 -0.51 -65.85 -0.25 -65.34 -0.07C-64.83 0.11 -64.26 0.19 -63.65 0.19C-62.62 0.19 -61.79 -0.01 -61.14 -0.41C-60.49 -0.82 -59.95 -1.31 -59.53 -1.87L-59.24 -1.87L-58.68 0.02L-55.9 0.02C-56.08 -0.51 -56.21 -1.07 -56.29 -1.66C-56.37 -2.24 -56.41 -2.84 -56.41 -3.46C-56.41 -4.37 -56.38 -5.23 -56.32 -6.04C-56.25 -6.85 -56.22 -7.67 -56.22 -8.5C-56.22 -9.18 -56.3 -9.8 -56.45 -10.36C-56.61 -10.92 -56.86 -11.4 -57.22 -11.8C-57.58 -12.19 -58.06 -12.5 -58.67 -12.71C-59.28 -12.92 -60.03 -13.03 -60.92 -13.03C-62.06 -13.03 -63.16 -12.92 -64.22 -12.71C-65.28 -12.5 -66.18 -12.23 -66.91 -11.91ZM-62.45 -2.53C-63.02 -2.53 -63.47 -2.68 -63.8 -2.97C-64.14 -3.26 -64.3 -3.7 -64.3 -4.29C-64.3 -4.76 -64.09 -5.15 -63.67 -5.47C-63.25 -5.78 -62.6 -5.94 -61.72 -5.94C-61.56 -5.94 -61.38 -5.93 -61.17 -5.92C-60.97 -5.9 -60.77 -5.88 -60.57 -5.84C-60.36 -5.81 -60.18 -5.78 -60.01 -5.75C-59.84 -5.71 -59.71 -5.68 -59.63 -5.65L-59.63 -4.19C-59.84 -3.8 -60.17 -3.42 -60.63 -3.07C-61.08 -2.71 -61.69 -2.53 -62.45 -2.53Z M-45.14 -9.67L-44.65 -12.81C-45.22 -12.99 -45.73 -13.07 -46.16 -13.07C-46.86 -13.07 -47.48 -12.9 -48.03 -12.54C-48.57 -12.18 -49 -11.67 -49.33 -11.01L-49.65 -11.01L-50.01 -12.78L-52.69 -12.78L-52.69 0L-49.28 0L-49.28 -8.11C-49.13 -8.63 -48.83 -9.06 -48.37 -9.4C-47.91 -9.74 -47.32 -9.91 -46.6 -9.91C-46.12 -9.91 -45.63 -9.83 -45.14 -9.67Z M-34.18 0L-30.78 0L-30.78 -7.72C-30.78 -8.77 -30.87 -9.65 -31.06 -10.35C-31.24 -11.05 -31.51 -11.6 -31.86 -12.02C-32.21 -12.43 -32.65 -12.72 -33.17 -12.89C-33.7 -13.06 -34.31 -13.15 -34.99 -13.15C-36.11 -13.15 -37.02 -12.93 -37.72 -12.5C-38.41 -12.07 -38.97 -11.56 -39.4 -10.96L-39.76 -10.96L-40.13 -12.78L-42.8 -12.78L-42.8 0L-39.4 0C-39.4 -1.33 -39.4 -2.67 -39.41 -4.01C-39.42 -5.34 -39.42 -6.68 -39.42 -8.01C-39.22 -8.63 -38.87 -9.13 -38.36 -9.53C-37.85 -9.93 -37.23 -10.13 -36.5 -10.13C-35.64 -10.13 -35.04 -9.89 -34.7 -9.4C-34.36 -8.91 -34.18 -8.12 -34.18 -7.01Z M-26.86 -12.78L-26.86 0L-23.45 0L-23.45 -12.78ZM-27.37 -15.97C-27.37 -15.5 -27.18 -15.1 -26.81 -14.76C-26.43 -14.41 -25.91 -14.24 -25.22 -14.24C-24.53 -14.24 -23.97 -14.41 -23.57 -14.76C-23.16 -15.1 -22.96 -15.5 -22.96 -15.97C-22.96 -16.48 -23.16 -16.91 -23.57 -17.26C-23.97 -17.62 -24.53 -17.8 -25.22 -17.8C-25.91 -17.8 -26.43 -17.62 -26.81 -17.28C-27.18 -16.93 -27.37 -16.49 -27.37 -15.97Z M-10.93 0L-7.52 0L-7.52 -7.72C-7.52 -8.77 -7.62 -9.65 -7.8 -10.35C-7.99 -11.05 -8.26 -11.6 -8.61 -12.02C-8.96 -12.43 -9.39 -12.72 -9.92 -12.89C-10.45 -13.06 -11.05 -13.15 -11.74 -13.15C-12.86 -13.15 -13.76 -12.93 -14.46 -12.5C-15.16 -12.07 -15.72 -11.56 -16.14 -10.96L-16.51 -10.96L-16.87 -12.78L-19.55 -12.78L-19.55 0L-16.14 0C-16.14 -1.33 -16.15 -2.67 -16.16 -4.01C-16.16 -5.34 -16.17 -6.68 -16.17 -8.01C-15.97 -8.63 -15.62 -9.13 -15.11 -9.53C-14.6 -9.93 -13.98 -10.13 -13.25 -10.13C-12.39 -10.13 -11.78 -9.89 -11.44 -9.4C-11.1 -8.91 -10.93 -8.12 -10.93 -7.01Z M7.55 -0.49L7.55 -12.37C6.95 -12.56 6.18 -12.74 5.25 -12.89C4.31 -13.05 3.25 -13.12 2.07 -13.12C-0.19 -13.12 -1.89 -12.56 -3.03 -11.42C-4.18 -10.28 -4.75 -8.59 -4.75 -6.35C-4.75 -4.23 -4.31 -2.69 -3.45 -1.73C-2.58 -0.77 -1.27 -0.29 0.46 -0.29C1.31 -0.29 2.01 -0.39 2.58 -0.58C3.15 -0.78 3.6 -1.11 3.92 -1.58L4.21 -1.58L4.21 -0.63C4.21 -0.19 4.16 0.2 4.05 0.56C3.95 0.92 3.77 1.22 3.51 1.47C3.25 1.72 2.9 1.92 2.46 2.05C2.02 2.18 1.47 2.24 0.8 2.24C0.01 2.24 -0.67 2.14 -1.22 1.94C-1.77 1.73 -2.24 1.53 -2.63 1.34L-2.65 1.41C-2.67 1.46 -2.7 1.58 -2.75 1.78C-2.8 1.97 -2.88 2.26 -2.98 2.64C-3.09 3.02 -3.25 3.54 -3.46 4.19C-3.04 4.4 -2.44 4.59 -1.67 4.76C-0.9 4.93 0.12 5.02 1.39 5.02C3.35 5.02 4.87 4.57 5.94 3.68C7.01 2.78 7.55 1.4 7.55 -0.49ZM1.27 -2.95C0.5 -2.95 -0.11 -3.23 -0.56 -3.8C-1.01 -4.37 -1.24 -5.27 -1.24 -6.5C-1.24 -7.85 -0.97 -8.81 -0.44 -9.4C0.1 -9.98 0.86 -10.27 1.85 -10.27C2.78 -10.27 3.54 -10.15 4.14 -9.89L4.14 -4.38C3.93 -3.98 3.58 -3.64 3.1 -3.36C2.63 -3.08 2.01 -2.95 1.27 -2.95Z M11.74 -4.75C11.74 -3.95 11.91 -3.24 12.26 -2.62C12.61 -1.99 13.08 -1.46 13.68 -1.02C14.28 -0.58 14.98 -0.25 15.78 -0.01C16.57 0.22 17.42 0.34 18.31 0.34C19.71 0.34 20.89 0.14 21.85 -0.27C22.82 -0.67 23.63 -1.14 24.28 -1.68C24.76 -1.24 25.27 -0.84 25.78 -0.49C26.3 -0.13 26.79 0.15 27.25 0.34L29.1 -2.14C28.66 -2.37 28.23 -2.61 27.82 -2.87C27.4 -3.13 26.93 -3.49 26.39 -3.94C26.59 -4.17 26.8 -4.44 27.01 -4.75C27.23 -5.06 27.45 -5.38 27.66 -5.72C27.87 -6.06 28.07 -6.4 28.24 -6.74C28.42 -7.09 28.58 -7.39 28.71 -7.67L26.22 -9.08C25.98 -8.43 25.69 -7.8 25.35 -7.18C25.01 -6.57 24.64 -6.05 24.25 -5.65C23.88 -5.99 23.52 -6.33 23.19 -6.67C22.86 -7.01 22.53 -7.36 22.22 -7.72C21.9 -8.08 21.59 -8.45 21.29 -8.84C20.99 -9.23 20.68 -9.65 20.36 -10.1C21.59 -10.75 22.45 -11.44 22.95 -12.16C23.44 -12.88 23.69 -13.57 23.69 -14.22C23.69 -14.63 23.61 -15.02 23.46 -15.4C23.31 -15.78 23.05 -16.12 22.7 -16.41C22.36 -16.7 21.9 -16.94 21.33 -17.12C20.76 -17.3 20.07 -17.38 19.26 -17.38C18.42 -17.38 17.71 -17.28 17.13 -17.07C16.55 -16.86 16.08 -16.59 15.72 -16.26C15.35 -15.94 15.09 -15.57 14.93 -15.14C14.76 -14.72 14.68 -14.31 14.68 -13.9C14.68 -13.29 14.82 -12.71 15.11 -12.16C15.39 -11.62 15.75 -11.09 16.19 -10.57C15.53 -10.23 14.92 -9.85 14.38 -9.43C13.83 -9.02 13.37 -8.57 12.98 -8.07C12.59 -7.58 12.28 -7.05 12.06 -6.49C11.85 -5.93 11.74 -5.35 11.74 -4.75ZM22.16 -3.68C21.83 -3.37 21.37 -3.1 20.76 -2.86C20.15 -2.63 19.49 -2.51 18.8 -2.51C17.69 -2.51 16.81 -2.73 16.14 -3.18C15.48 -3.62 15.14 -4.24 15.14 -5.04C15.14 -5.69 15.36 -6.29 15.8 -6.85C16.24 -7.41 16.89 -7.99 17.75 -8.59C18.32 -7.85 18.97 -7.06 19.71 -6.22C20.45 -5.39 21.26 -4.54 22.16 -3.68ZM18.09 -13.73C18.09 -14.09 18.21 -14.38 18.44 -14.6C18.68 -14.82 19.03 -14.93 19.5 -14.93C20.04 -14.93 20.42 -14.82 20.66 -14.61C20.89 -14.4 21.01 -14.09 21.01 -13.68C21.01 -13.38 20.86 -13.05 20.55 -12.71C20.24 -12.37 19.75 -12 19.06 -11.61C18.42 -12.36 18.09 -13.07 18.09 -13.73Z M51.3 -0.73L50.6 -3.6C50.17 -3.38 49.69 -3.19 49.15 -3.04C48.6 -2.9 47.93 -2.82 47.14 -2.82C46.28 -2.82 45.52 -2.96 44.87 -3.24C44.22 -3.51 43.69 -3.9 43.27 -4.41C42.84 -4.91 42.53 -5.51 42.32 -6.21C42.11 -6.91 42 -7.68 42 -8.52C42 -9.48 42.12 -10.32 42.35 -11.03C42.59 -11.74 42.92 -12.34 43.34 -12.81C43.76 -13.28 44.27 -13.63 44.86 -13.87C45.45 -14.1 46.12 -14.22 46.85 -14.22C47.67 -14.22 48.36 -14.18 48.9 -14.1C49.45 -14.02 49.92 -13.89 50.33 -13.71L51.03 -16.73C50.56 -16.91 49.97 -17.06 49.24 -17.19C48.52 -17.32 47.63 -17.38 46.58 -17.38C45.62 -17.38 44.65 -17.23 43.66 -16.92C42.67 -16.61 41.77 -16.11 40.95 -15.42C40.14 -14.73 39.48 -13.83 38.96 -12.7C38.44 -11.57 38.18 -10.18 38.18 -8.52C38.18 -6.93 38.41 -5.58 38.86 -4.46C39.31 -3.34 39.93 -2.42 40.7 -1.7C41.47 -0.99 42.35 -0.47 43.35 -0.15C44.35 0.18 45.39 0.34 46.48 0.34C47.41 0.34 48.31 0.26 49.18 0.09C50.06 -0.09 50.77 -0.36 51.3 -0.73Z M62.36 0L65.76 0L65.76 -7.79C65.76 -8.81 65.68 -9.67 65.5 -10.36C65.32 -11.05 65.05 -11.6 64.71 -12.02C64.36 -12.43 63.92 -12.72 63.4 -12.89C62.88 -13.06 62.27 -13.15 61.58 -13.15C60.57 -13.15 59.74 -12.97 59.08 -12.61C58.42 -12.26 57.88 -11.79 57.44 -11.22L57.15 -11.22L57.15 -17.04L53.74 -17.04L53.74 0L57.15 0L57.15 -7.86C57.32 -8.55 57.68 -9.09 58.23 -9.51C58.77 -9.92 59.37 -10.13 60.02 -10.13C60.91 -10.13 61.52 -9.89 61.86 -9.41C62.19 -8.93 62.36 -8.14 62.36 -7.04Z M69.68 -12.78L69.68 0L73.09 0L73.09 -12.78ZM69.17 -15.97C69.17 -15.5 69.36 -15.1 69.73 -14.76C70.11 -14.41 70.63 -14.24 71.32 -14.24C72.01 -14.24 72.57 -14.41 72.97 -14.76C73.38 -15.1 73.58 -15.5 73.58 -15.97C73.58 -16.48 73.38 -16.91 72.97 -17.26C72.57 -17.62 72.01 -17.8 71.32 -17.8C70.63 -17.8 70.11 -17.62 69.73 -17.28C69.36 -16.93 69.17 -16.49 69.17 -15.97Z M80.47 -4.48L80.47 -17.04L77.06 -17.04L77.06 -2.53C77.06 -1.49 77.33 -0.75 77.88 -0.29C78.42 0.16 79.2 0.39 80.23 0.39C80.86 0.39 81.47 0.32 82.07 0.18C82.66 0.04 83.12 -0.1 83.44 -0.24L83.03 -2.9C82.75 -2.8 82.51 -2.73 82.31 -2.69C82.11 -2.65 81.89 -2.63 81.66 -2.63C80.87 -2.63 80.47 -3.25 80.47 -4.48Z M96.83 -4.48L96.83 -17.04L93.42 -17.04L93.42 -12.66C93.02 -12.79 92.61 -12.9 92.19 -12.99C91.78 -13.08 91.29 -13.12 90.72 -13.12C89.7 -13.12 88.8 -12.96 88.02 -12.64C87.24 -12.31 86.59 -11.85 86.06 -11.25C85.53 -10.65 85.13 -9.92 84.87 -9.06C84.6 -8.2 84.46 -7.23 84.46 -6.16C84.46 -3.94 84.93 -2.29 85.88 -1.23C86.82 -0.17 88.14 0.37 89.84 0.37C90.8 0.37 91.63 0.17 92.32 -0.21C93.01 -0.59 93.54 -1.1 93.91 -1.75L94.23 -1.75L94.71 0.02L97.08 0.02C96.95 -0.84 96.87 -1.63 96.86 -2.36C96.84 -3.09 96.83 -3.8 96.83 -4.48ZM90.72 -2.48C89.78 -2.48 89.09 -2.81 88.64 -3.47C88.19 -4.13 87.97 -4.99 87.97 -6.06C87.97 -7.6 88.23 -8.69 88.76 -9.33C89.29 -9.96 90.1 -10.27 91.18 -10.27C91.72 -10.27 92.15 -10.22 92.49 -10.12C92.82 -10.01 93.13 -9.84 93.42 -9.62L93.42 -4.5C93.23 -3.86 92.92 -3.36 92.5 -3.01C92.08 -2.66 91.48 -2.48 90.72 -2.48Z M116.85 -0.78L116.07 -3.34C115.71 -3.12 115.33 -2.96 114.94 -2.84C114.54 -2.71 114 -2.65 113.32 -2.65C112.75 -2.65 112.25 -2.75 111.83 -2.95C111.41 -3.14 111.06 -3.41 110.78 -3.75C110.51 -4.09 110.31 -4.48 110.18 -4.93C110.05 -5.38 109.98 -5.86 109.98 -6.38C109.98 -7.69 110.25 -8.65 110.8 -9.24C111.34 -9.83 112.12 -10.13 113.15 -10.13C113.7 -10.13 114.18 -10.08 114.59 -9.99C115.01 -9.91 115.43 -9.77 115.85 -9.59L116.68 -12.32C116.19 -12.56 115.63 -12.76 115.01 -12.92C114.38 -13.07 113.58 -13.15 112.61 -13.15C110.61 -13.15 109.09 -12.55 108.05 -11.36C107 -10.17 106.47 -8.51 106.47 -6.38C106.47 -5.37 106.58 -4.46 106.79 -3.64C107 -2.82 107.35 -2.11 107.83 -1.51C108.3 -0.91 108.92 -0.45 109.68 -0.12C110.43 0.2 111.36 0.37 112.46 0.37C113.29 0.37 114.09 0.27 114.86 0.07C115.63 -0.12 116.3 -0.41 116.85 -0.78Z M119.26 -11.91L120.16 -9.33C120.73 -9.6 121.38 -9.83 122.12 -10.02C122.86 -10.21 123.62 -10.3 124.4 -10.3C125.24 -10.3 125.82 -10.15 126.12 -9.86C126.43 -9.57 126.59 -9.11 126.59 -8.5C126.59 -8.25 126.56 -7.96 126.51 -7.62C126.33 -7.65 126.02 -7.71 125.56 -7.78C125.11 -7.85 124.65 -7.89 124.2 -7.89C122.24 -7.89 120.77 -7.52 119.81 -6.78C118.84 -6.04 118.36 -4.95 118.36 -3.51C118.36 -2.97 118.46 -2.48 118.66 -2.02C118.86 -1.57 119.15 -1.17 119.51 -0.84C119.88 -0.51 120.32 -0.25 120.83 -0.07C121.34 0.11 121.9 0.19 122.52 0.19C123.54 0.19 124.38 -0.01 125.03 -0.41C125.68 -0.82 126.21 -1.31 126.64 -1.87L126.93 -1.87L127.49 0.02L130.26 0.02C130.08 -0.51 129.95 -1.07 129.87 -1.66C129.79 -2.24 129.75 -2.84 129.75 -3.46C129.75 -4.37 129.78 -5.23 129.85 -6.04C129.91 -6.85 129.95 -7.67 129.95 -8.5C129.95 -9.18 129.87 -9.8 129.72 -10.36C129.56 -10.92 129.31 -11.4 128.95 -11.8C128.59 -12.19 128.11 -12.5 127.5 -12.71C126.89 -12.92 126.14 -13.03 125.25 -13.03C124.11 -13.03 123.01 -12.92 121.95 -12.71C120.88 -12.5 119.99 -12.23 119.26 -11.91ZM123.71 -2.53C123.15 -2.53 122.69 -2.68 122.36 -2.97C122.03 -3.26 121.86 -3.7 121.86 -4.29C121.86 -4.76 122.07 -5.15 122.5 -5.47C122.92 -5.78 123.57 -5.94 124.44 -5.94C124.61 -5.94 124.79 -5.93 124.99 -5.92C125.19 -5.9 125.4 -5.88 125.6 -5.84C125.8 -5.81 125.99 -5.78 126.16 -5.75C126.33 -5.71 126.46 -5.68 126.54 -5.65L126.54 -4.19C126.33 -3.8 125.99 -3.42 125.54 -3.07C125.08 -2.71 124.48 -2.53 123.71 -2.53Z M141.02 -9.67L141.51 -12.81C140.94 -12.99 140.44 -13.07 140 -13.07C139.3 -13.07 138.68 -12.9 138.14 -12.54C137.6 -12.18 137.16 -11.67 136.84 -11.01L136.52 -11.01L136.16 -12.78L133.48 -12.78L133.48 0L136.89 0L136.89 -8.11C137.03 -8.63 137.34 -9.06 137.8 -9.4C138.26 -9.74 138.85 -9.91 139.56 -9.91C140.05 -9.91 140.54 -9.83 141.02 -9.67Z M154.29 -1.17L153.13 -3.31C152.8 -3.08 152.33 -2.86 151.73 -2.64C151.12 -2.42 150.43 -2.31 149.67 -2.31C148.4 -2.31 147.49 -2.58 146.93 -3.1C146.37 -3.63 146.05 -4.45 145.97 -5.55L154.49 -5.55C154.59 -5.99 154.66 -6.41 154.7 -6.82C154.74 -7.22 154.76 -7.6 154.76 -7.94C154.76 -8.93 154.6 -9.76 154.28 -10.43C153.97 -11.11 153.55 -11.64 153.03 -12.04C152.51 -12.44 151.92 -12.72 151.25 -12.89C150.59 -13.06 149.91 -13.15 149.23 -13.15C147.14 -13.15 145.51 -12.58 144.36 -11.43C143.21 -10.29 142.63 -8.6 142.63 -6.38C142.63 -4.29 143.14 -2.64 144.17 -1.44C145.19 -0.24 146.8 0.37 148.99 0.37C150.07 0.37 151.09 0.22 152.04 -0.09C152.99 -0.39 153.74 -0.75 154.29 -1.17ZM149.18 -10.47C150.07 -10.47 150.72 -10.21 151.11 -9.69C151.49 -9.17 151.66 -8.47 151.59 -7.57L146.09 -7.57C146.17 -8.42 146.45 -9.11 146.94 -9.65C147.43 -10.2 148.18 -10.47 149.18 -10.47Z"></path></g><g id="SvgjsG27336" class="text" transform="translate(310.71009708733175, 42.21993329060524) scale(1 1)" light-content="false" fill="#333333"><path d="M-152.53 -25.07C-152.53 -26.73 -152.92 -28.09 -153.68 -29.15C-154.45 -30.21 -155.45 -31.05 -156.7 -31.66C-157.95 -32.27 -159.36 -32.69 -160.92 -32.93C-162.49 -33.16 -164.08 -33.28 -165.7 -33.28C-166.7 -33.28 -167.7 -33.26 -168.7 -33.23C-169.7 -33.2 -170.68 -33.15 -171.63 -33.09C-172.59 -33.03 -173.48 -32.95 -174.3 -32.85C-175.13 -32.76 -175.87 -32.67 -176.53 -32.57L-176.53 -0.23C-175.66 -0.05 -174.68 0.09 -173.6 0.19C-172.52 0.28 -171.46 0.35 -170.41 0.4C-169.37 0.45 -168.38 0.47 -167.46 0.47L-165.23 0.47C-163.52 0.47 -161.83 0.28 -160.17 -0.09C-158.52 -0.47 -157.05 -1.05 -155.77 -1.83C-154.49 -2.61 -153.45 -3.61 -152.65 -4.83C-151.85 -6.05 -151.46 -7.51 -151.46 -9.23C-151.46 -10.51 -151.65 -11.63 -152.04 -12.58C-152.43 -13.54 -152.96 -14.35 -153.63 -15.02C-154.31 -15.69 -155.1 -16.22 -156 -16.59C-156.91 -16.97 -157.88 -17.2 -158.91 -17.29L-158.91 -17.58C-157.75 -17.79 -156.77 -18.15 -155.95 -18.65C-155.14 -19.15 -154.49 -19.75 -153.99 -20.43C-153.49 -21.12 -153.12 -21.86 -152.88 -22.66C-152.65 -23.46 -152.53 -24.26 -152.53 -25.07ZM-165.33 -5.16C-165.67 -5.16 -166.07 -5.16 -166.52 -5.18C-166.98 -5.19 -167.42 -5.21 -167.86 -5.23C-168.3 -5.24 -168.7 -5.26 -169.05 -5.3C-169.41 -5.33 -169.69 -5.37 -169.87 -5.44L-169.87 -13.97L-166.03 -13.97C-165.16 -13.97 -164.29 -13.93 -163.43 -13.85C-162.57 -13.77 -161.79 -13.58 -161.09 -13.29C-160.38 -12.99 -159.81 -12.55 -159.38 -11.95C-158.94 -11.36 -158.72 -10.56 -158.72 -9.56C-158.72 -8.75 -158.9 -8.07 -159.26 -7.52C-159.62 -6.98 -160.1 -6.52 -160.71 -6.16C-161.32 -5.8 -162.02 -5.55 -162.82 -5.39C-163.62 -5.23 -164.45 -5.16 -165.33 -5.16ZM-167.53 -19.12L-169.87 -19.12L-169.87 -27.46C-169.44 -27.53 -168.84 -27.57 -168.09 -27.61C-167.34 -27.64 -166.52 -27.65 -165.61 -27.65C-164.86 -27.65 -164.13 -27.61 -163.41 -27.51C-162.69 -27.42 -162.04 -27.23 -161.46 -26.95C-160.88 -26.67 -160.42 -26.28 -160.08 -25.78C-159.74 -25.28 -159.56 -24.62 -159.56 -23.81C-159.56 -22.59 -160.02 -21.63 -160.92 -20.93C-161.83 -20.22 -162.94 -19.67 -164.25 -19.26C-164.69 -19.2 -165.23 -19.16 -165.87 -19.15C-166.51 -19.13 -167.06 -19.12 -167.53 -19.12Z M-146.49 -32.48L-146.49 0L-139.55 0L-139.55 -13.26L-135.9 -12.7L-127.74 0L-119.68 0L-127.88 -12.42L-130.36 -13.87C-128.02 -14.5 -126.19 -15.68 -124.86 -17.41C-123.53 -19.15 -122.87 -21.36 -122.87 -24.04C-122.87 -25.86 -123.26 -27.36 -124.04 -28.57C-124.82 -29.77 -125.84 -30.71 -127.11 -31.4C-128.37 -32.09 -129.81 -32.57 -131.42 -32.85C-133.03 -33.14 -134.66 -33.28 -136.32 -33.28C-137.04 -33.28 -137.82 -33.26 -138.68 -33.23C-139.54 -33.2 -140.43 -33.15 -141.33 -33.09C-142.24 -33.03 -143.14 -32.94 -144.03 -32.83C-144.92 -32.72 -145.74 -32.6 -146.49 -32.48ZM-135.85 -27.18C-134.04 -27.18 -132.65 -26.82 -131.68 -26.11C-130.71 -25.39 -130.22 -24.34 -130.22 -22.97C-130.22 -21.12 -130.79 -19.83 -131.93 -19.08C-133.08 -18.33 -134.63 -17.95 -136.6 -17.95L-139.55 -17.95L-139.55 -27C-139.14 -27.09 -138.61 -27.14 -137.93 -27.16C-137.26 -27.18 -136.57 -27.18 -135.85 -27.18Z M-100.23 -6.98L-97.42 0L-90.06 0L-102.95 -33.04L-108.06 -33.04L-120.9 0L-113.96 0L-111.29 -6.98ZM-109.37 -12.47L-106.88 -19.26L-105.76 -24.51L-105.52 -24.51L-104.4 -19.31L-101.87 -12.47Z M-84.43 -29.06L-84.43 -3.75L-88.18 -3.75L-88.18 0L-73.75 0L-73.75 -3.75L-77.5 -3.75L-77.5 -29.06L-73.75 -29.06L-73.75 -32.81L-88.18 -32.81L-88.18 -29.06Z M-59.97 -17.11L-46.52 0.23L-41.5 0.23L-41.5 -32.81L-48.06 -32.81L-48.06 -15.61L-47.31 -10.78L-47.59 -10.78L-50.27 -15.56L-63.81 -33.04L-68.83 -33.04L-68.83 0L-62.26 0L-62.26 -17.06L-63.01 -22.03L-62.78 -22.03Z M-6.91 -6.98L-4.1 0L3.26 0L-9.63 -33.04L-14.74 -33.04L-27.58 0L-20.65 0L-17.97 -6.98ZM-16.05 -12.47L-13.57 -19.26L-12.44 -24.51L-12.21 -24.51L-11.08 -19.31L-8.55 -12.47Z M24.25 -1.5L22.75 -6.42C22.07 -6.01 21.34 -5.69 20.58 -5.46C19.81 -5.23 18.77 -5.11 17.46 -5.11C16.36 -5.11 15.41 -5.3 14.6 -5.67C13.79 -6.05 13.12 -6.56 12.58 -7.22C12.05 -7.87 11.66 -8.63 11.41 -9.49C11.16 -10.35 11.04 -11.28 11.04 -12.28C11.04 -14.81 11.56 -16.65 12.61 -17.79C13.65 -18.93 15.16 -19.5 17.13 -19.5C18.19 -19.5 19.12 -19.41 19.92 -19.24C20.72 -19.07 21.52 -18.81 22.33 -18.47L23.93 -23.72C22.99 -24.18 21.92 -24.57 20.72 -24.86C19.51 -25.16 17.97 -25.31 16.1 -25.31C12.26 -25.31 9.33 -24.16 7.31 -21.86C5.3 -19.57 4.29 -16.37 4.29 -12.28C4.29 -10.34 4.49 -8.58 4.9 -7.01C5.3 -5.43 5.97 -4.06 6.89 -2.91C7.81 -1.75 9 -0.86 10.45 -0.23C11.9 0.39 13.69 0.7 15.82 0.7C17.41 0.7 18.95 0.52 20.43 0.14C21.92 -0.23 23.19 -0.78 24.25 -1.5Z M28.89 -22.92L30.63 -17.95C31.72 -18.48 32.98 -18.93 34.4 -19.29C35.82 -19.65 37.28 -19.83 38.78 -19.83C40.41 -19.83 41.52 -19.54 42.11 -18.98C42.7 -18.42 43 -17.54 43 -16.36C43 -15.89 42.95 -15.33 42.86 -14.67C42.52 -14.73 41.91 -14.83 41.03 -14.97C40.16 -15.12 39.28 -15.19 38.41 -15.19C34.63 -15.19 31.81 -14.47 29.95 -13.05C28.09 -11.63 27.16 -9.53 27.16 -6.75C27.16 -5.72 27.36 -4.76 27.75 -3.89C28.14 -3.02 28.68 -2.26 29.39 -1.62C30.09 -0.98 30.93 -0.48 31.92 -0.14C32.9 0.2 33.99 0.37 35.17 0.37C37.14 0.37 38.75 -0.02 40 -0.8C41.25 -1.58 42.28 -2.52 43.1 -3.61L43.66 -3.61L44.74 0.05L50.08 0.05C49.74 -0.98 49.49 -2.06 49.33 -3.19C49.17 -4.31 49.09 -5.47 49.09 -6.66C49.09 -8.41 49.16 -10.06 49.28 -11.62C49.41 -13.19 49.47 -14.76 49.47 -16.36C49.47 -17.67 49.32 -18.86 49.02 -19.94C48.73 -21.02 48.24 -21.94 47.55 -22.71C46.86 -23.47 45.93 -24.06 44.76 -24.47C43.59 -24.87 42.14 -25.07 40.42 -25.07C38.24 -25.07 36.12 -24.87 34.07 -24.47C32.03 -24.06 30.3 -23.54 28.89 -22.92ZM37.47 -4.87C36.38 -4.87 35.51 -5.16 34.87 -5.72C34.23 -6.28 33.91 -7.12 33.91 -8.25C33.91 -9.15 34.32 -9.91 35.13 -10.52C35.94 -11.13 37.19 -11.44 38.88 -11.44C39.19 -11.44 39.54 -11.42 39.93 -11.39C40.32 -11.36 40.71 -11.31 41.1 -11.25C41.49 -11.19 41.85 -11.12 42.18 -11.06C42.51 -11 42.75 -10.94 42.91 -10.87L42.91 -8.06C42.5 -7.31 41.86 -6.59 40.99 -5.91C40.11 -5.22 38.94 -4.87 37.47 -4.87Z M78.67 -8.62L78.67 -32.81L72.11 -32.81L72.11 -24.37C71.33 -24.62 70.54 -24.83 69.74 -25C68.94 -25.18 68 -25.26 66.9 -25.26C64.94 -25.26 63.2 -24.95 61.7 -24.32C60.2 -23.7 58.94 -22.81 57.93 -21.65C56.91 -20.5 56.15 -19.09 55.63 -17.44C55.12 -15.78 54.86 -13.92 54.86 -11.86C54.86 -7.58 55.77 -4.41 57.58 -2.37C59.39 -0.32 61.94 0.7 65.22 0.7C67.06 0.7 68.65 0.34 69.97 -0.4C71.3 -1.13 72.33 -2.12 73.04 -3.37L73.65 -3.37L74.59 0.05L79.14 0.05C78.89 -1.61 78.75 -3.14 78.72 -4.55C78.68 -5.95 78.67 -7.31 78.67 -8.62ZM66.9 -4.78C65.09 -4.78 63.76 -5.41 62.9 -6.68C62.04 -7.94 61.61 -9.61 61.61 -11.67C61.61 -14.64 62.12 -16.73 63.13 -17.95C64.15 -19.17 65.7 -19.78 67.8 -19.78C68.83 -19.78 69.66 -19.68 70.3 -19.47C70.94 -19.27 71.54 -18.95 72.11 -18.51L72.11 -8.67C71.73 -7.42 71.14 -6.46 70.33 -5.79C69.51 -5.12 68.37 -4.78 66.9 -4.78Z M106.74 -2.25L104.49 -6.37C103.87 -5.94 102.97 -5.51 101.8 -5.09C100.63 -4.66 99.31 -4.45 97.84 -4.45C95.4 -4.45 93.64 -4.96 92.57 -5.98C91.49 -6.99 90.87 -8.56 90.71 -10.69L107.12 -10.69C107.31 -11.53 107.44 -12.34 107.52 -13.12C107.59 -13.9 107.63 -14.62 107.63 -15.28C107.63 -17.19 107.33 -18.79 106.72 -20.08C106.11 -21.38 105.31 -22.41 104.31 -23.18C103.31 -23.94 102.17 -24.49 100.88 -24.82C99.6 -25.14 98.31 -25.31 96.99 -25.31C92.96 -25.31 89.84 -24.21 87.62 -22C85.4 -19.8 84.29 -16.56 84.29 -12.28C84.29 -8.25 85.28 -5.08 87.25 -2.77C89.21 -0.45 92.31 0.7 96.53 0.7C98.62 0.7 100.58 0.41 102.41 -0.16C104.24 -0.74 105.68 -1.44 106.74 -2.25ZM96.9 -20.15C98.62 -20.15 99.85 -19.65 100.6 -18.65C101.35 -17.65 101.67 -16.29 101.54 -14.58L90.95 -14.58C91.1 -16.2 91.65 -17.54 92.59 -18.58C93.53 -19.63 94.96 -20.15 96.9 -20.15Z M128.91 0L135.47 0L135.47 -15.7C135.82 -16.89 136.39 -17.82 137.18 -18.49C137.98 -19.16 139.04 -19.5 140.35 -19.5C141.19 -19.5 141.87 -19.36 142.39 -19.1C142.9 -18.83 143.3 -18.43 143.58 -17.88C143.86 -17.33 144.05 -16.67 144.14 -15.89C144.24 -15.11 144.28 -14.2 144.28 -13.17L144.28 0L150.85 0L150.85 -14.2C150.85 -16.36 150.7 -18.15 150.4 -19.59C150.1 -21.03 149.63 -22.17 148.97 -23.01C148.32 -23.86 147.46 -24.45 146.42 -24.79C145.37 -25.14 144.1 -25.31 142.6 -25.31C140.88 -25.31 139.37 -24.89 138.07 -24.04C136.78 -23.2 135.68 -22.03 134.77 -20.53C134.11 -22.25 133.23 -23.47 132.12 -24.21C131.01 -24.94 129.63 -25.31 127.97 -25.31C126.97 -25.31 126.08 -25.19 125.28 -24.96C124.48 -24.72 123.76 -24.42 123.12 -24.04C122.48 -23.67 121.9 -23.23 121.37 -22.73C120.83 -22.23 120.37 -21.72 119.96 -21.18L119.35 -21.18L118.6 -24.61L113.54 -24.61L113.54 0L120.1 0L120.1 -16.03C120.54 -17.06 121.15 -17.9 121.93 -18.54C122.71 -19.18 123.76 -19.5 125.07 -19.5C126.63 -19.5 127.66 -18.98 128.16 -17.95C128.66 -16.92 128.91 -15.22 128.91 -12.84Z M166.59 -10.97L161.58 -24.61L153.66 -24.61L164.91 0.14C164.69 0.95 164.43 1.6 164.13 2.09C163.84 2.57 163.52 2.94 163.17 3.21C162.83 3.48 162.45 3.66 162.05 3.75C161.64 3.84 161.22 3.89 160.78 3.89C160.28 3.89 159.8 3.81 159.33 3.66L157.97 8.72C158.5 9 159.13 9.21 159.87 9.35C160.6 9.49 161.38 9.56 162.19 9.56C163.41 9.56 164.46 9.29 165.35 8.74C166.24 8.19 167.05 7.41 167.77 6.37C168.48 5.34 169.15 4.09 169.76 2.62C170.37 1.16 171.02 -0.5 171.7 -2.34L179.86 -24.61L173.16 -24.61L168.98 -10.97L168.09 -7.03L167.63 -7.03Z"></path></g><rect id="SvgjsRect27337" width="205.45788825782202" height="3" fill="#7ed321" transform="translate(201.35040178579646, 59.40025946077378) scale(1)" light-content="false"></rect></g></g></svg>