<svg id="Layer_2" data-name="Layer 2" xmlns="http://www.w3.org/2000/svg" width="123.16" height="70.64" viewBox="0 0 123.16 70.64">
  <g id="Layer_1" data-name="Layer 1">
    <path id="Path_1" data-name="Path 1" d="M23.6,70.64H123.16V0H23.6L0,24.026v23.3ZM9.156,31.653a3.662,3.662,0,1,1-3.662,3.662A3.662,3.662,0,0,1,9.156,31.653Z" fill="#f6e002"/>
    <path id="Path_2" data-name="Path 2" d="M59.641,26.733a5.8,5.8,0,0,1-1.959,4.578Q55.5,33.2,51.272,33.2H41.2V11.158h9.614a7.6,7.6,0,0,1,5.393,1.749,4.972,4.972,0,0,1,1.6,3.791,4.578,4.578,0,0,1-2.948,4.331,6.309,6.309,0,0,1,3.489,1.959A5.567,5.567,0,0,1,59.641,26.733Zm-7.993-8.781q0-2.014-2.463-2.014H47.948v4.038h.76Q51.647,19.967,51.647,17.952Zm1.025,8.442q0-2.207-2.692-2.207H47.948v4.221h1.767a3.946,3.946,0,0,0,2.078-.485,1.685,1.685,0,0,0,.879-1.529Z" transform="translate(-3.477 -0.94)" fill="#29479d"/>
    <path id="Path_3" data-name="Path 3" d="M84.248,24.281q0,9.623-10,9.623T64.26,24.281V11.16h6.821V23.521q0,4.422,3.131,4.422t3.2-4.422V11.16h6.821Z" transform="translate(-5.422 -0.942)" fill="#29479d"/>
    <path id="Path_4" data-name="Path 4" d="M109.928,11.158l-7.829,11.9V33.243H95.279v-10.2L87.45,11.14h7.911l3.305,6.071,3.351-6.061Z" transform="translate(-7.379 -0.94)" fill="#29479d"/>
    <path id="Path_5" data-name="Path 5" d="M59.641,56.733a5.805,5.805,0,0,1-1.959,4.578Q55.5,63.2,51.272,63.2H41.2V41.158h9.614a7.6,7.6,0,0,1,5.393,1.749,4.972,4.972,0,0,1,1.6,3.791,4.578,4.578,0,0,1-2.948,4.331,6.309,6.309,0,0,1,3.489,1.959,5.567,5.567,0,0,1,1.291,3.745Zm-7.993-8.781q0-2.014-2.463-2.014H47.948v4.038h.76q2.939-.009,2.939-2.024Zm1.025,8.442q0-2.207-2.692-2.207H47.948v4.221h1.767a3.946,3.946,0,0,0,2.078-.485A1.685,1.685,0,0,0,52.673,56.394Z" transform="translate(-3.477 -3.472)" fill="#29479d"/>
    <path id="Path_6" data-name="Path 6" d="M78.3,63.245H64.36V41.16H78.3v5.494H71.181v2.875h6.583v5.219H71.172v2.994H78.3Z" transform="translate(-5.431 -3.473)" fill="#29479d"/>
    <path id="Path_7" data-name="Path 7" d="M98.422,56.01A7.27,7.27,0,0,1,96,61.815,9.568,9.568,0,0,1,89.6,63.829a15.163,15.163,0,0,1-8.3-2.463l2.371-5.283a8.772,8.772,0,0,0,5.265,2.271,3.3,3.3,0,0,0,1.831-.458,1.227,1.227,0,0,0,.586-1.025,1.831,1.831,0,0,0-.916-1.492,16.555,16.555,0,0,0-3.5-1.492A7.655,7.655,0,0,1,83.479,51.8a5.9,5.9,0,0,1-1.291-3.974,6.73,6.73,0,0,1,2.344-5.393A8.881,8.881,0,0,1,90.484,40.5a14.238,14.238,0,0,1,7.1,1.932L95.5,47.641a6.766,6.766,0,0,0-4.276-1.7,2.655,2.655,0,0,0-1.428.348,1.044,1.044,0,0,0-.559.916,1.273,1.273,0,0,0,.678,1.08,24.52,24.52,0,0,0,3.443,1.538,9.312,9.312,0,0,1,3.891,2.536,5.613,5.613,0,0,1,1.172,3.653Z" transform="translate(-6.86 -3.417)" fill="#29479d"/>
    <path id="Path_8" data-name="Path 8" d="M116.858,46.782h-4.725V63.263h-6.821V46.782H100.56V41.16h16.3Z" transform="translate(-8.485 -3.473)" fill="#29479d"/>
  </g>
</svg>
