<?xml version="1.0" encoding="UTF-8"?>
<svg width="180px" height="39px" viewBox="0 0 180 39" version="1.1" xmlns="http://www.w3.org/2000/svg" xmlns:xlink="http://www.w3.org/1999/xlink">
    <!-- Generator: Sketch 57.1 (83088) - https://sketch.com -->
    <title>dt-logo-bg-color copy</title>
    <desc>Created with Sketch.</desc>
    <g id="Design" stroke="none" stroke-width="1" fill="none" fill-rule="evenodd">
        <g id="000-Homepage" transform="translate(-85.000000, -15.000000)" fill-rule="nonzero">
            <g id="00-Resources/Logo/01-white" transform="translate(85.000000, 15.000000)">
                <g id="dt-logo-bg-color-copy">
                    <g id="_x23_009344ff" fill="#009344">
                        <path d="M17.2780181,0.0653807149 C18.1415651,-0.00726452387 19.0051121,0.0290580955 19.8686591,0.0217935716 C24.6535588,0.232464764 29.339363,2.37549931 32.6732206,5.91332243 C35.2709398,8.57940269 37.0334251,12.0663742 37.7129375,15.7712813 C38.6543453,20.9290933 37.4722768,26.4573959 34.5135667,30.743465 C32.7015336,33.3804872 30.259536,35.5743734 27.4211561,36.983691 C22.0275265,39.7660037 15.3385765,39.562597 10.058199,36.6059358 C8.31694849,35.6397541 6.72434133,34.3975205 5.35116005,32.9373512 C2.06685018,29.4431153 0.0990955564,24.6485295 0.0707825403,19.7812985 C-0.0637042863,14.9576547 1.68462446,10.1194818 4.82029099,6.52354244 C7.95595753,2.84042883 12.5214314,0.472194052 17.2780181,0.0653807149 L17.2780181,0.0653807149 Z M18.4671648,0.261522859 C15.4447503,0.392284289 12.4506488,1.29308525 9.87416437,2.9203386 C6.83759339,4.8091148 4.37436099,7.64954364 2.92331891,10.9766956 C1.68462446,13.7517437 1.17499017,16.8536954 1.40857255,19.8975309 C1.71293748,23.8131093 3.28430987,27.6124552 5.86079434,30.5182648 C9.06016516,34.2304365 13.8167519,36.4897034 18.6582776,36.526026 C21.5462053,36.5768777 24.4412112,35.8940125 27.0176956,34.5500755 C31.3779001,32.3271312 34.7825403,28.1790881 36.0778608,23.3554443 C37.1325206,19.4907176 36.8564687,15.2772937 35.3841919,11.5723865 C33.9543846,7.96191817 31.3849784,4.82364385 28.1219033,2.81863526 C25.2410539,1.00976882 21.8293354,0.13076143 18.4671648,0.261522859 Z" id="Shape"></path>
                        <path d="M18.8423122,4.46041766 C19.0617381,4.71467599 18.9697208,5.08516671 18.9909556,5.39754124 C18.9838773,11.2818056 18.9838773,17.1660699 18.9909556,23.0503343 C18.9697208,23.6097026 19.3448683,24.2199226 19.9394416,24.2053935 C22.1337004,24.2271871 24.3279591,24.1908645 26.5222179,24.2271871 C26.2461659,24.7720264 25.6657491,25.0117557 25.1278018,25.1788397 C24.4907589,25.40404 23.7970901,25.3241302 23.1600472,25.5638595 C22.430987,25.8326469 21.7090051,26.2031376 21.149823,26.7697705 C20.8666929,27.0603514 20.6331105,27.5325455 20.8454581,27.9248298 C20.9516319,28.1572945 21.2135273,28.2154107 21.425875,28.2807914 C21.9779788,28.440611 22.4663783,28.7747791 22.8627605,29.1888569 C23.5776642,29.9080448 24.3350374,30.5836455 24.9720802,31.3754786 C23.5564294,31.2156591 22.1832481,30.7870522 20.8029886,30.423826 C20.0173024,30.2276838 19.1962249,29.7772834 18.3822257,30.1041869 C18.0212348,30.1913612 17.8088871,30.5327938 17.497444,30.7144069 C17.2780181,30.6926134 17.1222965,30.4310905 16.8887141,30.4528841 C15.9756193,30.6272327 15.0766811,31.0049879 14.1352733,30.9032846 C14.2980731,30.6562907 14.4467165,30.4020324 14.5033425,30.1114515 C13.2717263,30.0751288 12.0330319,30.118716 10.7943374,30.0896579 C11.2898152,29.1452698 12.316162,28.6440176 13.3141958,28.4769336 C13.9795517,28.3824948 14.6590641,28.288056 15.2819505,28.0265331 C15.4164373,27.9611524 15.6075501,27.8812426 15.6004719,27.6996295 C15.6358632,27.2855517 15.6358632,26.8642093 15.6641762,26.4501314 C15.7208022,26.0723762 15.3385765,25.8689695 15.0696028,25.70915 C13.6893433,24.9899621 12.0967361,25.1425171 10.6103028,24.9027878 C9.1309477,24.641265 7.66574912,24.1836 6.37750688,23.3845023 C5.66968148,23.0140116 4.92646481,22.6871081 4.14077861,22.5490821 C3.58867479,22.4328497 3.04364923,21.9897138 2.96578844,21.3940228 C3.05072749,20.6385123 3.87888321,20.3334023 4.51592607,20.2680216 C6.16515926,20.1735828 7.8214707,20.1663183 9.47070389,20.0646149 C8.79119151,19.4761885 7.8993315,19.1856076 7.021628,19.0839042 C6.63940228,19.0185235 6.29256783,19.2873109 5.91742037,19.2800464 C5.21667322,19.1274914 4.76366496,18.1322516 5.25914274,17.5365606 C5.83955958,16.8536954 6.73141958,16.5558499 7.58081007,16.417824 C8.13291388,16.3233851 8.50806134,15.8802492 8.91152182,15.5388166 C10.0369642,15.4589068 11.1765631,15.5460811 12.3020055,15.5024939 C12.1887534,15.2845582 12.0825796,15.0302999 11.841919,14.9358611 C11.5587888,14.9431256 11.2898152,15.0811516 11.006685,15.073887 C10.5678333,15.0956806 10.3979552,14.4564025 9.94494691,14.5435768 C9.4848604,14.6307511 9.01769564,14.7397189 8.55053087,14.6670737 C8.47974833,13.6282468 9.30790405,12.7782975 10.2422336,12.5603618 C10.7589461,12.3787487 11.3322847,12.465923 11.8348407,12.2261937 C12.3798663,11.9283482 12.7479355,11.3762444 12.9815179,10.8096115 C12.6559182,10.7587599 12.2453795,10.8314051 11.9976406,10.5480887 C11.9339363,10.054101 12.4860401,9.77804913 12.8895006,9.74899104 C13.4486827,9.7054039 13.9512387,9.35670675 14.2272906,8.86271913 C14.489186,8.45590579 14.6661424,7.86021483 15.1899331,7.74398245 C15.5792371,7.76577602 15.855289,8.2161765 16.272906,8.12900221 C16.718836,8.05635698 17.193079,8.26702817 17.6036178,8.02003436 C17.3558789,7.52604673 16.8037751,7.33716911 16.3366103,7.12649792 C16.0817932,7.00300101 15.7208022,6.95214935 15.6217066,6.63977482 C15.6500197,6.50174887 15.742037,6.39278101 15.8482108,6.30560672 C16.4923319,5.782561 17.3558789,5.62274148 17.9362957,5.019786 C18.1981911,4.78005671 18.4388517,4.37324337 18.8423122,4.46041766 Z M14.1069603,10.969431 C13.7601258,11.1583087 13.625639,11.565122 13.5548565,11.9356127 C14.2556036,11.9356127 14.9705073,11.8121158 15.5933936,11.4779477 C15.7845065,11.398038 15.6995674,11.1365151 15.5650806,11.0420763 C15.1686984,10.6933791 14.5528903,10.7369663 14.1069603,10.969431 L14.1069603,10.969431 Z M13.3779001,14.906803 C13.5477782,15.2990873 13.9016909,15.6332554 14.3405427,15.6259909 C14.850177,15.5969328 15.2819505,15.2700292 15.6287849,14.906803 C14.87849,14.8777449 14.128195,14.8704804 13.3779001,14.906803 L13.3779001,14.906803 Z M10.504129,19.3526916 C10.4899725,19.6795952 10.6244593,20.0573504 10.978372,20.1082021 C11.6083366,20.1881118 12.2524577,20.1445247 12.8824223,20.0718795 C12.4718836,19.2291947 11.2898152,18.8441749 10.504129,19.3526916 L10.504129,19.3526916 Z M13.7884389,19.3454271 C13.7884389,19.3962787 13.7813606,19.4979821 13.7742823,19.5560983 C13.9441604,19.7304468 14.1352733,19.8684728 14.3546992,19.9629116 C14.3546992,19.7522404 14.3476209,19.5488337 14.3405427,19.3381626 C14.1565081,19.2873109 13.9724735,19.2945754 13.7884389,19.3454271 L13.7884389,19.3454271 Z M15.7349587,23.1956247 C15.77035,23.5225283 15.9968541,23.7840512 16.187967,24.031045 C16.2941408,23.6678188 16.3507668,23.2537409 16.1525757,22.9123083 C15.9756193,22.8323985 15.7066457,22.9849535 15.7349587,23.1956247 L15.7349587,23.1956247 Z M11.6224931,23.2101538 C11.7923712,23.5588509 12.1745969,23.6750833 12.5143531,23.7622576 C13.179709,23.9075481 13.8592214,24.0092514 14.5387338,23.9729288 C14.5599685,23.7695221 14.6590641,23.5443219 14.5387338,23.3554443 C14.3971687,23.1593021 14.128195,23.1956247 13.9158474,23.1810957 C13.151396,23.2101538 12.3869446,23.1738312 11.6224931,23.2101538 Z" id="Shape"></path>
                    </g>
                    <path d="M68.1989776,3.14553884 C68.991742,2.91307407 69.8411325,2.95666122 70.6409752,3.11648074 C70.6692882,3.57414575 70.66221,4.03181075 70.6551317,4.48947575 C69.9331498,4.3514498 69.0696028,4.26427551 68.4750295,4.79458576 C67.9441604,5.47018648 67.7459693,6.4799553 68.1635863,7.26452387 C68.6590641,8.15079579 69.8057413,8.20164745 70.6692882,7.94738912 C70.6692882,8.41958317 70.6763665,8.8845127 70.6551317,9.35670675 C69.4730633,9.60370056 68.0857255,9.61096508 67.123083,8.76101579 C66.1816752,7.92559555 66.0117971,6.51627791 66.2241447,5.31763148 C66.4223358,4.29333361 67.2151003,3.42885527 68.1989776,3.14553884 Z" id="Path" fill="#336699"></path>
                    <path d="M90.3185214,3.03657098 C91.2316162,2.9203386 92.2367283,2.97845479 93.008258,3.55235217 C93.8576484,4.14804313 94.2398742,5.24498624 94.1903264,6.2692841 C94.2257177,7.28631745 93.8081007,8.36146698 92.9657884,8.94262889 C91.8049548,9.71266842 90.1627998,9.69813937 89.0302792,8.86271913 C87.9614628,8.04182793 87.7137239,6.50174887 88.0110106,5.23045719 C88.244593,4.10445599 89.2072355,3.21091955 90.3185214,3.03657098 L90.3185214,3.03657098 Z M90.6653559,4.46768218 C90.1911129,4.60570814 89.8867479,5.06337314 89.7805741,5.53556719 C89.6319308,6.18937434 89.6602438,6.91582673 90.0141565,7.49698864 C90.417617,8.14353126 91.4298073,8.23797007 91.9394416,7.67860173 C92.2721195,7.32990459 92.3782934,6.82138792 92.3712151,6.34919387 C92.3853716,5.8116191 92.3216673,5.20866362 91.9394416,4.80185028 C91.6279984,4.42409504 91.1042076,4.3514498 90.6653559,4.46768218 Z" id="Shape" fill="#336699"></path>
                    <path d="M103.484074,3.03657098 C104.333464,2.92760312 105.246559,2.97119026 105.989776,3.45064884 C106.973653,4.01001718 107.405427,5.23772171 107.355879,6.34919387 C107.370035,7.48245959 106.803775,8.67384151 105.777428,9.1605646 C104.531656,9.74172651 102.896579,9.62549413 101.891467,8.60846079 C101.042076,7.67860173 100.879276,6.25475506 101.219033,5.06337314 C101.509241,4.01001718 102.436492,3.1963905 103.484074,3.03657098 L103.484074,3.03657098 Z M103.830908,4.46768218 C103.292961,4.61297266 102.967361,5.16507647 102.903657,5.70265124 C102.804562,6.36372291 102.839953,7.14102697 103.300039,7.66407269 C103.816752,8.25249912 104.864333,8.15079579 105.253637,7.46793054 C105.621707,6.7850653 105.621707,5.91332243 105.345655,5.20139909 C105.133307,4.58391456 104.425482,4.28606909 103.830908,4.46768218 Z" id="Shape" fill="#336699"></path>
                    <path d="M71.3417224,3.16006789 C71.9221392,3.13100979 72.502556,3.13827431 73.0829729,3.15280336 C73.0192686,3.75575884 72.948486,4.35871432 72.948486,4.96166981 C72.9697208,5.43386386 73.0405033,5.97870315 73.4227291,6.29107767 C73.8049548,6.59618768 74.3145891,6.50174887 74.7605191,6.50174887 C74.7605191,6.96667839 74.7605191,7.43887245 74.7534408,7.90380197 C73.9465199,8.02003436 73.0758946,8.07088602 72.3185214,7.71492435 C71.7805741,7.46793054 71.5116005,6.87950411 71.3275659,6.34192934 C71.0232009,5.30310243 71.2284703,4.20615932 71.3417224,3.16006789 Z" id="Path" fill="#336699"></path>
                    <path d="M75.0578057,3.15280336 C75.6311443,3.14553884 76.1974046,3.14553884 76.7707432,3.15280336 C76.7707432,5.21592814 76.7778215,7.27905292 76.7707432,9.34944223 C76.1974046,9.3712358 75.6240661,9.3712358 75.0578057,9.34944223 C75.0294927,7.27905292 75.0294927,5.20866362 75.0578057,3.15280336 Z" id="Path" fill="#336699"></path>
                    <path d="M77.8961856,3.14553884 C79.2127409,3.14553884 80.5292961,3.13100979 81.8458514,3.15280336 C81.8458514,3.62499741 81.8458514,4.09719146 81.8387731,4.56212099 C81.0955564,4.58391456 80.3523398,4.54759194 79.6091231,4.57665004 C79.6020448,5.69538672 79.6020448,6.81412339 79.6091231,7.92559555 C80.3948093,7.93286007 81.1804955,7.93286007 81.9661817,7.91833102 C81.9591034,8.38326055 81.9803382,8.84819008 81.9520252,9.31311961 C80.6071569,9.33491318 79.2552104,9.33491318 77.9103421,9.31311961 C77.8749508,7.26452387 77.8749508,5.20866362 77.8961856,3.14553884 Z" id="Path" fill="#336699"></path>
                    <path d="M82.7377114,3.15280336 C84.287849,3.13100979 85.8379866,3.14553884 87.3881243,3.14553884 C87.3952025,3.62499741 87.4022808,4.09719146 87.381046,4.57665004 C86.906803,4.56938552 86.43256,4.55485647 85.9583169,4.58391456 C85.9300039,6.18210982 85.9512387,7.78756959 85.9512387,9.38576484 C85.3708219,9.40755842 84.7833268,9.39302937 84.2029099,9.39302937 C84.1958317,7.78756959 84.2099882,6.18210982 84.1958317,4.58391456 C83.7145104,4.56212099 83.2261109,4.57665004 82.7447896,4.56938552 C82.7377114,4.09719146 82.7377114,3.62499741 82.7377114,3.15280336 Z" id="Path" fill="#336699"></path>
                    <path d="M95.0821864,3.15280336 C96.1510028,3.13827431 97.2198191,3.15280336 98.2886355,3.14553884 C98.7699567,3.13100979 99.2654345,3.26177122 99.640582,3.57414575 C100.13606,3.96643003 100.320094,4.72920504 100.036964,5.31036695 C99.9024774,5.62274148 99.6193472,5.81888362 99.3503736,6.00776124 C99.7042863,6.18210982 100.065277,6.41457458 100.25639,6.7850653 C100.596146,7.51878221 100.405033,8.51402198 99.7113645,8.97168698 C99.1734172,9.34944223 98.4868266,9.36397127 97.856862,9.35670675 C96.9296107,9.3421777 96.0023594,9.37850032 95.0751081,9.3421777 C95.0609516,7.27905292 95.0609516,5.20866362 95.0821864,3.15280336 L95.0821864,3.15280336 Z M96.8092804,4.46041766 C96.8022021,5.64453505 96.8022021,6.82865244 96.8092804,8.01276983 C97.2906017,7.99097626 97.8002359,8.09994412 98.2674007,7.91833102 C98.6991742,7.77304054 98.7558002,6.98120744 98.2886355,6.85771054 C97.8993315,6.73421363 97.4887928,6.79232982 97.0924105,6.77780077 C97.0853323,6.32740029 97.0853323,5.86973529 97.0994888,5.41933481 C97.4604797,5.41207029 97.8356272,5.47018648 98.1895399,5.36848314 C98.5222179,5.28130886 98.6142352,4.74373409 98.3169485,4.56938552 C97.828549,4.39503694 97.3047582,4.46041766 96.8092804,4.46041766 Z" id="Shape" fill="#336699"></path>
                    <path d="M108.799843,4.12624956 C109.259929,3.39979717 110.158867,3.15280336 110.95871,3.14553884 C111.89304,3.15280336 112.834448,3.13100979 113.768777,3.16006789 C113.768777,4.75099861 113.747542,6.34192934 113.775855,7.93286007 C113.966968,7.94012459 114.165159,7.94738912 114.356272,7.94738912 C114.377507,8.40505412 114.377507,8.86271913 114.356272,9.32038413 C112.162013,9.3421777 109.967755,9.33491318 107.773496,9.32038413 C107.766418,8.86271913 107.766418,8.40505412 107.773496,7.94012459 C109.189147,7.93286007 110.597719,7.94738912 112.01337,7.93286007 C112.020448,6.81412339 112.01337,5.69538672 112.020448,4.57665004 C111.397562,4.44588861 110.640189,4.62750171 110.27212,5.19413457 C109.840346,5.95690958 110.059772,6.87223958 110.180102,7.68586626 C109.599685,7.68586626 109.01219,7.68586626 108.431773,7.68586626 C108.12033,6.52354244 108.084939,5.15781195 108.799843,4.12624956 Z" id="Path" fill="#336699"></path>
                    <path d="M115.042863,3.15280336 C115.616201,3.14553884 116.182462,3.14553884 116.7558,3.15280336 C116.762878,5.21592814 116.762878,7.27905292 116.7558,9.3421777 C116.182462,9.3712358 115.609123,9.36397127 115.042863,9.3421777 C115.021628,7.27905292 115.021628,5.20866362 115.042863,3.15280336 Z" id="Path" fill="#336699"></path>
                    <path d="M118.695242,3.15280336 C119.275659,3.13100979 119.863154,3.13827431 120.443571,3.14553884 C120.457727,5.20139909 120.464805,7.25725935 120.443571,9.31311961 C119.87731,9.3421777 119.318128,9.3421777 118.751868,9.31311961 C118.723555,8.29608626 118.766024,7.28631745 118.737711,6.27654863 C118.178529,6.26201958 117.612269,6.27654863 117.053087,6.26201958 C117.046009,5.80435457 117.046009,5.34668957 117.053087,4.88902457 C117.598112,4.88176004 118.143138,4.89628909 118.695242,4.88176004 C118.709398,4.30786266 118.688164,3.73396527 118.695242,3.15280336 Z" id="Path" fill="#336699"></path>
                    <path d="M123.296107,3.16006789 C123.869446,3.13827431 124.449862,3.13827431 125.023201,3.16006789 C126.106174,5.06337314 126.764451,7.19914316 127.097129,9.3712358 C126.516713,9.3712358 125.936296,9.37850032 125.362957,9.36397127 C125.299253,9.01527413 125.235549,8.66657698 125.178923,8.31787984 C124.612662,8.29608626 124.046402,8.32514436 123.480142,8.30335079 C123.543846,7.84568578 123.65002,7.3952853 123.791585,6.95214935 C124.124263,6.95941387 124.456941,6.95214935 124.789619,6.9376203 C124.676366,6.34919387 124.449862,5.782561 124.159654,5.25951528 C123.579237,6.56712958 123.218246,7.96191817 122.956351,9.36397127 C122.375934,9.38576484 121.802595,9.3712358 121.222179,9.3712358 C121.307118,8.59393174 121.526543,7.83842126 121.738891,7.08291078 C122.135273,5.73170934 122.588282,4.37324337 123.296107,3.16006789 Z" id="Path" fill="#336699"></path>
                    <path d="M130.756587,3.15280336 C131.329925,3.14553884 131.896186,3.14553884 132.469524,3.15280336 C132.476602,3.5596167 132.469524,3.97369456 132.476602,4.3805079 C133.042863,4.17710123 133.559575,3.83566861 133.927645,3.34168098 C134.06921,3.10195169 134.359418,3.15280336 134.593,3.14553884 C135.116791,3.16006789 135.640582,3.13827431 136.164373,3.16006789 C135.760912,4.03181075 135.046009,4.70741147 134.260322,5.22319267 C135.286669,6.38551648 136.058199,7.81662769 136.305938,9.37850032 C135.718443,9.37850032 135.130948,9.37850032 134.536374,9.37850032 C134.267401,8.12173769 133.616201,6.97394292 132.752654,6.05134839 C132.660637,6.08040648 132.561541,6.10946458 132.476602,6.13852267 C132.455368,7.20640768 132.483681,8.27429269 132.462446,9.3421777 C131.889107,9.36397127 131.322847,9.36397127 130.749508,9.3421777 C130.735352,7.27905292 130.735352,5.20866362 130.756587,3.15280336 Z" id="Path" fill="#336699"></path>
                    <path d="M136.652772,3.14553884 C137.523398,3.14553884 138.394023,3.13827431 139.271726,3.14553884 C139.292961,4.73646957 139.264648,6.32740029 139.285883,7.92559555 L139.349587,7.93286007 C139.859221,7.94738912 140.411325,7.94738912 140.871412,7.68586626 C141.32442,7.25725935 141.20409,6.2983422 140.59536,6.07314196 C140.255604,5.95690958 139.901691,6.04408386 139.561935,6.1167291 C139.561935,5.64453505 139.547778,5.16507647 139.576091,4.69288242 C140.326386,4.51853385 141.154542,4.48947575 141.848211,4.87449552 C142.49941,5.23045719 142.902871,5.9641741 142.931184,6.71242006 C142.973653,7.37349173 142.874558,8.11447317 142.407393,8.60846079 C141.961463,9.11697746 141.28195,9.29132603 140.637829,9.3421777 C139.618561,9.32764865 138.592214,9.36397127 137.572945,9.32764865 C137.509241,7.74398245 137.608337,6.16031624 137.530476,4.57665004 C137.240267,4.57665004 136.957137,4.57665004 136.666929,4.58391456 C136.645694,4.09719146 136.645694,3.62499741 136.652772,3.14553884 Z" id="Path" fill="#336699"></path>
                    <path d="M143.731026,3.14553884 C144.318521,3.13827431 144.898938,3.13100979 145.486433,3.15280336 C145.38026,4.08992694 145.274086,5.03431504 145.288242,5.97870315 C145.323634,6.52354244 145.366103,7.12649792 145.74125,7.5478403 C146.073928,7.90380197 146.597719,7.92559555 147.050727,7.94012459 C148.9477,7.93286007 150.844672,7.94738912 152.741644,7.92559555 C152.741644,8.39052507 152.7558,8.8554546 152.727487,9.31311961 C150.434133,9.3421777 148.1337,9.31311961 145.840346,9.32764865 C144.898938,9.34944223 144.014157,8.72469317 143.731026,7.79483412 C143.27094,6.29107767 143.561148,4.6856179 143.731026,3.14553884 Z" id="Path" fill="#336699"></path>
                    <path d="M146.987023,3.14553884 C147.553284,3.13827431 148.119544,3.13827431 148.678726,3.14553884 C148.678726,4.64929528 148.692882,6.15305172 148.671648,7.64954364 C148.105387,7.69313078 147.539127,7.65680816 146.972867,7.66407269 C146.994101,6.16758077 146.979945,4.6565598 146.987023,3.14553884 Z" id="Path" fill="#336699"></path>
                    <path d="M150.313803,3.14553884 C150.887141,3.13827431 151.453401,3.13827431 152.02674,3.14553884 C152.047975,4.64929528 152.047975,6.16031624 152.02674,7.66407269 C151.453401,7.68586626 150.887141,7.68586626 150.313803,7.66407269 C150.306724,6.16031624 150.313803,4.6565598 150.313803,3.14553884 Z" id="Path" fill="#336699"></path>
                    <path d="M155.219033,3.16006789 C155.792371,3.13827431 156.372788,3.13827431 156.946127,3.16006789 C158.043256,5.04884409 158.694455,7.19914316 159.020055,9.36397127 C158.439638,9.36397127 157.8663,9.3712358 157.285883,9.35670675 C157.222179,9.0080096 157.158474,8.65931246 157.09477,8.31061531 C156.52851,8.28155722 155.962249,8.31787984 155.395989,8.28882174 C155.459693,7.83115674 155.580024,7.38075626 155.707432,6.9376203 C156.054267,6.9376203 156.394023,6.9376203 156.740857,6.93035578 C156.578057,6.34919387 156.386945,5.76076743 156.075501,5.24498624 C155.502163,6.55260053 155.14825,7.94738912 154.872198,9.35670675 C154.291781,9.37850032 153.711365,9.36397127 153.138026,9.36397127 C153.513173,7.20640768 154.192686,5.08516671 155.219033,3.16006789 Z" id="Path" fill="#336699"></path>
                    <path d="M24.3067243,4.75099861 C24.7314196,4.75099861 25.1561148,4.71467599 25.5808101,4.76552766 C25.9064098,4.80185028 25.8143924,5.22319267 25.8073142,5.45565743 C25.7223751,5.76803196 25.3259929,5.66632862 25.0924105,5.70991576 C25.3401494,5.92058696 25.5949666,6.1167291 25.828549,6.34192934 C25.3189147,6.45816172 25.0003932,5.9932322 24.6252458,5.74623838 C24.6181675,5.94238053 24.604011,6.1457872 24.5969328,6.34192934 C24.4907589,6.34192934 24.3916634,6.34192934 24.2854896,6.34192934 C24.2996461,5.8116191 24.2784113,5.28130886 24.3067243,4.75099861 L24.3067243,4.75099861 Z M24.6110893,5.019786 C24.6110893,5.17960552 24.604011,5.33942505 24.604011,5.49924457 C24.8942194,5.48471552 25.1844278,5.46292195 25.467558,5.40480576 C25.4604797,5.28130886 25.4534015,5.15781195 25.4463232,5.02705052 C25.1631931,5.00525695 24.8871412,4.99799243 24.6110893,5.019786 Z" id="Shape" fill="#336699"></path>
                    <path d="M79.885175,5.03431504 C80.6567047,5.03431504 81.4282344,5.019786 82.1997641,5.04157957 C82.1997641,5.51377362 82.1997641,5.97870315 82.1926858,6.4508972 C81.4282344,6.46542625 80.6637829,6.4508972 79.8993315,6.45816172 C79.8780967,5.98596767 79.8780967,5.51377362 79.885175,5.03431504 Z" id="Path" fill="#336699"></path>
                    <path d="M44.9893826,6.05861291 C50.8430987,6.05134839 56.6897365,6.05134839 62.5434526,6.05861291 C62.5434526,6.17484529 62.5434526,6.2983422 62.5434526,6.41457458 C56.6897365,6.41457458 50.8430987,6.4218391 44.9893826,6.41457458 C44.9893826,6.29107767 44.9893826,6.17484529 44.9893826,6.05861291 Z" id="Path" fill="#336699"></path>
                    <path d="M162.417617,6.05861291 C168.271333,6.05134839 174.117971,6.05134839 179.971687,6.05861291 C179.971687,6.17484529 179.971687,6.2983422 179.971687,6.41457458 C174.117971,6.41457458 168.271333,6.4218391 162.417617,6.41457458 C162.417617,6.29107767 162.417617,6.17484529 162.417617,6.05861291 Z" id="Path" fill="#336699"></path>
                    <path d="M115.920566,32.1527827 C117.024774,32.1673117 118.128982,32.1600472 119.233189,32.1527827 C119.240267,32.3634539 119.240267,32.574125 119.247346,32.7775317 C118.794337,32.7847962 118.341329,32.7775317 117.881243,32.7847962 C117.85293,33.8236232 117.874164,34.8624501 117.874164,35.901277 C117.654738,35.9085415 117.428234,35.9085415 117.208808,35.901277 C117.208808,34.8842436 117.230043,33.8599458 117.20173,32.8429124 C116.777035,32.8211189 116.345262,32.8283834 115.920566,32.8356479 C115.913488,32.6104477 115.913488,32.3852474 115.920566,32.1527827 Z" id="Path" fill="#336699"></path>
                    <path d="M145.528903,32.1673117 C146.640189,32.1527827 147.751475,32.1600472 148.862761,32.1673117 C148.869839,32.3707184 148.869839,32.574125 148.876917,32.7775317 C148.409752,32.7993253 147.942587,32.7847962 147.482501,32.7920608 C147.468344,33.8308877 147.482501,34.8769791 147.475423,35.915806 C147.24184,35.915806 147.015336,35.915806 146.788832,35.901277 C146.788832,34.8842436 146.810067,33.8672103 146.781754,32.8429124 C146.364137,32.8283834 145.94652,32.8356479 145.521825,32.8211189 C145.528903,32.6031831 145.528903,32.3852474 145.528903,32.1673117 Z" id="Path" fill="#336699"></path>
                    <path d="M63.4777821,32.1891053 C64.0157295,33.4313389 64.5536768,34.680837 65.0279198,35.9593932 C64.8226504,35.9593932 64.617381,35.9593932 64.4121117,35.9593932 C64.3271726,35.7705156 64.2351553,35.5889025 64.1502163,35.4000248 C63.7113645,35.3564377 63.2725128,35.3709667 62.8265828,35.3854958 C62.7345655,35.5671089 62.6425482,35.7559865 62.5646874,35.9448641 C62.3452615,35.9521287 62.1258356,35.9521287 61.913488,35.9303351 C62.4443571,34.6881015 62.9327566,33.4240743 63.4777821,32.1891053 L63.4777821,32.1891053 Z M63.4777821,33.8018296 C63.3362171,34.0924105 63.2088085,34.390256 63.1026347,34.695366 C63.3432953,34.7026305 63.5910342,34.7026305 63.8316948,34.6881015 C63.7467558,34.3829915 63.6264255,34.085146 63.4777821,33.8018296 Z" id="Shape" fill="#336699"></path>
                    <path d="M65.7923712,34.0197653 C65.7640582,33.0535836 66.6205269,32.1673117 67.569013,32.1963698 C68.2697601,32.1382536 68.9421943,32.5668605 69.2677939,33.1988741 C69.0908376,33.322371 68.9138812,33.4458679 68.7298466,33.5621003 C68.5033425,33.2860484 68.2485254,32.9736739 67.8875344,32.8937641 C67.2646481,32.7194155 66.5992922,33.2134032 66.4789619,33.8454167 C66.316162,34.5137529 66.8611876,35.2111472 67.5123869,35.2765279 C68.0503343,35.3564377 68.4821077,34.9568889 68.7510814,34.528282 C68.9563508,34.5936627 69.1545419,34.680837 69.3456547,34.7825403 C69.0696028,35.5889025 68.1989776,36.0828901 67.3849784,35.9593932 C66.4648053,35.8576898 65.7145104,34.9568889 65.7923712,34.0197653 Z" id="Path" fill="#336699"></path>
                    <path d="M70.1101062,34.0197653 C70.0817932,33.0463191 70.9382619,32.1673117 71.8867479,32.1963698 C72.5874951,32.1382536 73.2599292,32.574125 73.5855289,33.1988741 C73.4085726,33.322371 73.2316162,33.4458679 73.0475816,33.5621003 C72.8210775,33.2860484 72.5662603,32.9736739 72.2052694,32.8937641 C71.5611483,32.7194155 70.8816359,33.2497258 70.7825403,33.9035329 C70.6409752,34.6735724 71.4195832,35.443612 72.1698781,35.2547344 C72.5733386,35.1893536 72.835234,34.847921 73.0617381,34.528282 C73.2670075,34.5936627 73.4651986,34.680837 73.6633897,34.7752758 C73.3873378,35.5525798 72.5591821,36.053832 71.7664176,35.9593932 C70.8179316,35.901277 70.0251671,34.9786825 70.1101062,34.0197653 Z" id="Path" fill="#336699"></path>
                    <path d="M75.7373181,32.2472215 C76.5300826,32.0365503 77.4573339,32.3707184 77.8395596,33.1480224 C78.3421156,34.0125008 78.0165159,35.2474698 77.1529689,35.7269284 C76.2894219,36.2645032 75.0294927,35.901277 74.590641,34.9568889 C74.0385372,33.9398555 74.618954,32.5087443 75.7373181,32.2472215 L75.7373181,32.2472215 Z M76.2115611,32.8864996 C75.6382226,32.8864996 75.12151,33.3659582 75.0578057,33.9471201 C74.9799449,34.5936627 75.5178923,35.2111472 76.1407786,35.2619989 C76.763665,35.3273796 77.3653166,34.7898048 77.4077861,34.1577913 C77.4573339,33.4894551 76.8627605,32.864706 76.2115611,32.8864996 Z" id="Shape" fill="#336699"></path>
                    <path d="M78.965002,32.2036343 C79.1773496,32.2036343 79.3896972,32.2036343 79.5949666,32.2036343 C79.6020448,33.0535836 79.5878883,33.9035329 79.5949666,34.7534822 C79.5878883,34.9786825 79.7082186,35.2474698 79.9559575,35.2692634 C80.359418,35.3201151 80.7628785,35.2837925 81.166339,35.2692634 C81.194652,34.2522301 81.1734172,33.2351967 81.1734172,32.2108989 C81.3928431,32.2036343 81.6193472,32.2036343 81.8387731,32.2108989 C81.8316948,33.4676615 81.8316948,34.7171596 81.8387731,35.9739222 C81.2300433,35.9884513 80.6213134,35.9957158 80.0125836,35.9811867 C79.4604797,35.9739222 78.9437672,35.4726701 78.9579237,34.8987727 C78.965002,33.9979717 78.965002,33.0971708 78.965002,32.2036343 Z" id="Path" fill="#336699"></path>
                    <path d="M82.9359025,32.1818408 C83.7923712,32.850177 84.5497444,33.6492746 85.3991349,34.3248753 C85.4203696,33.6202165 85.3920566,32.9082931 85.4062131,32.2036343 C85.6185608,32.2036343 85.8238301,32.2036343 86.0361777,32.2036343 C86.043256,33.460397 86.043256,34.7244241 86.0361777,35.9811867 C85.2221785,35.291057 84.4506488,34.5355465 83.6224931,33.8599458 C83.5871018,34.5573401 83.6295714,35.2547344 83.6012584,35.9521287 C83.3818325,35.9593932 83.1553284,35.9593932 82.9359025,35.9666577 C82.921746,34.7026305 82.921746,33.4386034 82.9359025,32.1818408 Z" id="Path" fill="#336699"></path>
                    <path d="M87.0837593,32.1891053 C88.187967,32.1673117 89.2850963,32.1673117 90.389304,32.1891053 C90.389304,32.3852474 90.389304,32.5886541 90.389304,32.7847962 C89.9362957,32.7920608 89.4762092,32.7847962 89.0232009,32.7920608 C89.0090444,33.8308877 89.0232009,34.8697146 89.0161227,35.915806 C88.8037751,35.915806 88.5914274,35.915806 88.3861581,35.915806 C88.3649233,34.8842436 88.4073928,33.8526813 88.3720016,32.8211189 C87.9473063,32.8356479 87.5155328,32.8356479 87.0908376,32.8138543 C87.0766811,32.6031831 87.0766811,32.392512 87.0837593,32.1891053 Z" id="Path" fill="#336699"></path>
                    <path d="M91.2103814,32.2036343 C91.4227291,32.2036343 91.6350767,32.2036343 91.8474243,32.2036343 C91.8474243,33.4531324 91.8615808,34.7098951 91.840346,35.9593932 C91.6350767,35.9593932 91.4298073,35.9593932 91.2245379,35.9593932 C91.1962249,34.7098951 91.2174597,33.4531324 91.2103814,32.2036343 Z" id="Path" fill="#336699"></path>
                    <path d="M92.8454581,32.1891053 C93.6806921,32.8574415 94.4380653,33.6202165 95.2591427,34.3103463 C95.2874558,33.612952 95.266221,32.9155577 95.266221,32.2108989 C95.4927251,32.2036343 95.7263075,32.1963698 95.9528116,32.1963698 C95.9528116,33.4531324 95.9598899,34.7171596 95.9457334,35.9739222 C95.1034212,35.2765279 94.3106567,34.5064884 93.482501,33.8018296 C93.4612662,34.5210174 93.4966575,35.2402053 93.4612662,35.9593932 C93.2559969,35.9593932 93.0507275,35.9593932 92.8454581,35.9593932 C92.8242234,34.7026305 92.8383799,33.4458679 92.8454581,32.1891053 Z" id="Path" fill="#336699"></path>
                    <path d="M97.7365317,32.5087443 C98.6496264,31.8331436 100.185608,32.2617505 100.497051,33.4095453 C100.178529,33.4240743 99.8033818,33.4894551 99.5768777,33.2061386 C98.9964609,32.5813896 97.8780967,32.9373512 97.6657491,33.7509779 C97.4321667,34.4556367 98.0267401,35.2184117 98.720409,35.2692634 C99.1592607,35.305586 99.5910342,35.0585922 99.8033818,34.6663079 C99.4211561,34.6372498 99.0389304,34.6445144 98.6567047,34.6517789 C98.6496264,34.4629013 98.6496264,34.2812882 98.6425482,34.0924105 C99.2583563,34.085146 99.8741644,34.085146 100.489972,34.0924105 C100.489972,34.7171596 100.504129,35.3419086 100.475816,35.9666577 C100.305938,35.9593932 100.13606,35.9521287 99.9732599,35.9448641 C99.9520252,35.8431608 99.9378687,35.7341929 99.9166339,35.6324896 C99.5485647,35.8286317 99.1451042,36.0029803 98.720409,35.9739222 C97.9771923,35.9666577 97.2835234,35.443612 97.049941,34.7244241 C96.7668109,33.932591 97.049941,32.9664093 97.7365317,32.5087443 Z" id="Path" fill="#336699"></path>
                    <path d="M102.875344,35.9593932 C103.335431,34.680837 103.880456,33.4313389 104.418403,32.1891053 C104.949273,33.4313389 105.465985,34.680837 105.961463,35.9303351 C105.749115,35.9521287 105.543846,35.9593932 105.331498,35.9448641 C105.246559,35.7559865 105.154542,35.5671089 105.069603,35.3854958 C104.630751,35.3637022 104.191899,35.3564377 103.753048,35.3927603 C103.66103,35.5816379 103.576091,35.763251 103.484074,35.9521287 C103.285883,35.9521287 103.080613,35.9593932 102.875344,35.9593932 L102.875344,35.9593932 Z M104.411325,33.7945651 C104.276838,34.085146 104.156508,34.3829915 104.071569,34.6881015 C104.31223,34.7026305 104.55289,34.7026305 104.800629,34.695366 C104.687377,34.3829915 104.567047,34.0778815 104.411325,33.7945651 Z" id="Shape" fill="#336699"></path>
                    <path d="M106.718836,32.1745762 C107.575305,32.8429124 108.332678,33.6420101 109.182068,34.3248753 C109.196225,33.6202165 109.17499,32.9082931 109.189147,32.2036343 C109.401494,32.2036343 109.606764,32.2036343 109.819111,32.2036343 C109.82619,33.460397 109.82619,34.7244241 109.819111,35.9811867 C109.005112,35.2837925 108.240661,34.528282 107.405427,33.8599458 C107.370035,34.5573401 107.412505,35.2547344 107.384192,35.9521287 C107.157688,35.9593932 106.938262,35.9593932 106.718836,35.9666577 C106.70468,34.7026305 106.70468,33.4386034 106.718836,32.1745762 Z" id="Path" fill="#336699"></path>
                    <path d="M110.887928,32.2036343 C111.333858,32.1963698 111.786866,32.1963698 112.232796,32.1963698 C113.124656,32.1818408 113.91742,32.9809384 113.981125,33.8817393 C114.094377,34.8261274 113.414864,35.8068382 112.480535,35.9303351 C111.956744,35.9811867 111.425875,35.9375996 110.895006,35.9521287 C110.873771,34.7098951 110.887928,33.460397 110.887928,32.2036343 L110.887928,32.2036343 Z M111.532049,32.8574415 C111.524971,33.6565391 111.524971,34.4629013 111.532049,35.2692634 C111.808101,35.2837925 112.091231,35.305586 112.367283,35.2547344 C112.919387,35.1602955 113.365317,34.5936627 113.322847,34.0197653 C113.294534,33.5911584 113.046795,33.169816 112.657491,32.9882029 C112.310657,32.8138543 111.907196,32.8574415 111.532049,32.8574415 Z" id="Shape" fill="#336699"></path>
                    <path d="M120.125049,35.9375996 C120.634683,34.680837 121.130161,33.4168098 121.689343,32.1818408 C122.213134,33.4313389 122.736925,34.680837 123.239481,35.9375996 C123.027133,35.9521287 122.814786,35.9593932 122.609516,35.9521287 C122.517499,35.763251 122.425482,35.5816379 122.340543,35.3927603 C121.901691,35.3637022 121.462839,35.3637022 121.023987,35.3927603 C120.93197,35.5816379 120.847031,35.7705156 120.755014,35.9593932 C120.542666,35.9521287 120.330319,35.9521287 120.125049,35.9375996 L120.125049,35.9375996 Z M121.675187,33.7945651 C121.5407,34.085146 121.42037,34.390256 121.307118,34.695366 C121.554856,34.7026305 121.809674,34.7026305 122.064491,34.695366 C121.94416,34.3829915 121.82383,34.085146 121.675187,33.7945651 Z" id="Shape" fill="#336699"></path>
                    <path d="M123.989776,32.2036343 C124.265828,32.1963698 124.534801,32.2036343 124.810853,32.2181634 C125.101062,32.6249767 125.355879,33.0608481 125.667322,33.4531324 C125.971687,33.0463191 126.240661,32.6177122 126.545026,32.2108989 C126.806921,32.2036343 127.068816,32.2036343 127.330712,32.2108989 C126.948486,32.8574415 126.474243,33.4386034 126.084939,34.085146 C126.474243,34.7244241 126.969721,35.291057 127.323634,35.9521287 C127.068816,35.9593932 126.813999,35.9593932 126.559182,35.9521287 C126.254817,35.5453153 125.992922,35.1094439 125.681479,34.7098951 C125.355879,35.0949148 125.136453,35.5671089 124.78254,35.9303351 C124.534801,36.0029803 124.265828,35.9521287 124.018089,35.9375996 C124.414471,35.305586 124.860401,34.7098951 125.263862,34.085146 C124.860401,33.4386034 124.400315,32.8356479 123.989776,32.2036343 Z" id="Path" fill="#336699"></path>
                    <path d="M130.119544,32.4724217 C130.480535,32.11646 131.032639,32.2036343 131.492725,32.2036343 C132.030672,32.2108989 132.448289,32.7266801 132.469524,33.2569903 C132.221785,33.2497258 131.896186,33.3586936 131.733386,33.1044353 C131.492725,32.7702672 131.032639,32.8138543 130.685804,32.9082931 C130.346048,33.0245255 130.374361,33.5766293 130.721195,33.6565391 C131.223751,33.7437134 131.804168,33.5475712 132.250098,33.8890039 C132.880063,34.3321398 132.844672,35.4363475 132.172238,35.8141027 C131.733386,36.0901546 131.18836,35.9593932 130.707039,35.9811867 C130.112466,35.9739222 129.624066,35.4218184 129.631144,34.8261274 C129.836414,34.8188629 130.048761,34.8261274 130.254031,34.833392 C130.374361,35.0077405 130.4593,35.2765279 130.707039,35.2765279 C131.075108,35.291057 131.450256,35.3273796 131.811247,35.2329408 C132.158081,35.0731213 132.094377,34.5137529 131.747542,34.3975205 C131.259143,34.2667591 130.707039,34.4919594 130.254031,34.2013784 C129.680692,33.8526813 129.616988,32.9155577 130.119544,32.4724217 Z" id="Path" fill="#336699"></path>
                    <path d="M134.982304,32.239957 C135.499017,32.1455181 136.065277,32.1891053 136.497051,32.5160089 C137.26858,33.0390546 137.516319,34.1941139 137.049155,35.0077405 C136.716477,35.6397541 136.008651,36.0320384 135.314982,35.9593932 C134.380653,35.9375996 133.559575,35.0513277 133.602045,34.0924105 C133.552497,33.2424612 134.168305,32.42157 134.982304,32.239957 L134.982304,32.239957 Z M135.392843,32.8864996 C134.904444,32.9010286 134.451435,33.2569903 134.30987,33.7364489 C134.090444,34.375727 134.557609,35.1094439 135.187574,35.2402053 C135.867086,35.4218184 136.610303,34.8115984 136.610303,34.0924105 C136.631538,33.4386034 136.029886,32.8429124 135.392843,32.8864996 Z" id="Shape" fill="#336699"></path>
                    <path d="M138.089658,32.2108989 C138.309084,32.2036343 138.535588,32.2108989 138.755014,32.2108989 C138.747936,33.2279322 138.733779,34.2449655 138.762092,35.2692634 C139.3779,35.2983215 139.993708,35.2765279 140.616595,35.2765279 C140.623673,35.5017282 140.623673,35.7341929 140.616595,35.9593932 C139.781361,35.9448641 138.939048,35.9593932 138.103814,35.9521287 C138.075501,34.7026305 138.096736,33.4531324 138.089658,32.2108989 Z" id="Path" fill="#336699"></path>
                    <path d="M141.536768,32.2036343 C141.763272,32.2036343 141.996854,32.2036343 142.223358,32.2181634 C142.21628,33.0390546 142.21628,33.8599458 142.21628,34.6881015 C142.209202,34.8987727 142.237515,35.1893536 142.478175,35.2547344 C142.895792,35.3346441 143.320488,35.2837925 143.745183,35.2765279 C143.773496,34.2594946 143.752261,33.2424612 143.752261,32.2254279 C143.978765,32.2181634 144.212348,32.2108989 144.438852,32.2181634 C144.438852,33.474926 144.438852,34.7389532 144.438852,35.9957158 C143.823044,35.9957158 143.207236,36.0102448 142.591427,35.9957158 C142.011011,35.9957158 141.515533,35.4290829 141.529689,34.8406565 C141.536768,33.9471201 141.536768,33.0753772 141.536768,32.2036343 Z" id="Path" fill="#336699"></path>
                    <path d="M149.67676,32.2036343 C149.889107,32.2036343 150.094377,32.2036343 150.306724,32.2036343 C150.306724,33.4531324 150.320881,34.7098951 150.299646,35.9593932 C150.094377,35.9593932 149.889107,35.9593932 149.683838,35.9593932 C149.662603,34.7098951 149.683838,33.4531324 149.67676,32.2036343 Z" id="Path" fill="#336699"></path>
                    <path d="M152.607157,32.2472215 C153.123869,32.1382536 153.697208,32.1745762 154.13606,32.5014798 C154.751868,32.9082931 155.063311,33.7219198 154.914668,34.4556367 C154.794337,35.0949148 154.334251,35.6470186 153.739678,35.8722189 C153.074322,36.1119482 152.281557,35.9521287 151.786079,35.4290829 C151.149037,34.7970694 151.078254,33.6783327 151.609123,32.9591448 C151.849784,32.6104477 152.203696,32.3489248 152.607157,32.2472215 L152.607157,32.2472215 Z M153.0814,32.8864996 C152.557609,32.8937641 152.062131,33.2860484 151.948879,33.8163586 C151.793158,34.4483722 152.260322,35.1312375 152.876131,35.2402053 C153.534408,35.4000248 154.228077,34.833392 154.277625,34.1577913 C154.327173,33.4894551 153.732599,32.864706 153.0814,32.8864996 Z" id="Shape" fill="#336699"></path>
                    <path d="M155.792371,32.1891053 C156.662996,32.8283834 157.406213,33.6420101 158.255604,34.3103463 C158.283917,33.612952 158.262682,32.9082931 158.262682,32.2108989 C158.482108,32.2036343 158.708612,32.2036343 158.928038,32.2108989 C158.899725,33.460397 158.956351,34.7098951 158.899725,35.9521287 C158.064491,35.2692634 157.285883,34.5210174 156.478962,33.8090941 C156.464805,34.528282 156.493118,35.2474698 156.464805,35.9666577 C156.238301,35.9593932 156.018875,35.9593932 155.799449,35.9521287 C155.785293,34.695366 155.778215,33.4386034 155.792371,32.1891053 Z" id="Path" fill="#336699"></path>
                    <path d="M160.428628,32.4869508 C160.78254,32.1237246 161.327566,32.1963698 161.787652,32.2036343 C162.332678,32.1963698 162.799843,32.7194155 162.785686,33.2715193 C162.580417,33.2715193 162.382226,33.2715193 162.176956,33.2569903 C161.964609,32.7993253 161.405427,32.7702672 160.994888,32.9155577 C160.690523,33.0463191 160.690523,33.5475712 161.023201,33.6492746 C161.497444,33.7509779 162.021235,33.5766293 162.467165,33.8163586 C163.118364,34.1505267 163.231616,35.1893536 162.679512,35.6688122 C162.254817,36.1046837 161.603618,35.9666577 161.06567,35.9739222 C160.456941,35.9884513 159.961463,35.4363475 159.93315,34.8261274 C160.138419,34.8188629 160.343689,34.7898048 160.54188,34.833392 C160.711758,34.985947 160.789619,35.2983215 161.06567,35.2692634 C161.412505,35.2837925 161.766418,35.305586 162.106174,35.2329408 C162.460087,35.1021794 162.438852,34.5210174 162.092017,34.3975205 C161.59654,34.237701 161.009044,34.4992239 160.548958,34.1795848 C160.018089,33.8163586 159.947306,32.9373512 160.428628,32.4869508 Z" id="Path" fill="#336699"></path>
                    <g id="_x23_4856647f" transform="translate(77.790012, 3.123745)" fill="#485664" opacity="0.5">
                        <path d="M0.0495477782,0.0290580955 L0.113252064,0.0217935716 C0.0920173024,2.07765383 0.0849390484,4.14077861 0.113252064,6.19663886 C1.45812033,6.21843244 2.81006685,6.21843244 4.15493512,6.19663886 C4.18324813,5.73170934 4.16909162,5.26677981 4.16909162,4.80185028 C4.24695242,5.28130886 4.18324813,5.76803196 4.20448289,6.25475506 C2.82422336,6.27654863 1.44396382,6.27654863 0.0566260322,6.25475506 C0.0424695242,4.18436575 0.0707825403,2.10671192 0.0495477782,0.0290580955 Z" id="Path"></path>
                    </g>
                    <g id="_x23_636a7180" transform="translate(117.003539, 3.123745)" fill="#636A71" opacity="0.5">
                        <path d="M3.44003146,0.0217935716 L3.510814,0.0217935716 C3.50373575,2.0994474 3.52497051,4.17710123 3.50373575,6.25475506 C2.8950059,6.2692841 2.29335431,6.2692841 1.68462446,6.25475506 C1.65631144,5.24498624 1.68462446,4.23521742 1.67046795,3.21818408 C1.13252064,3.20365503 0.587495085,3.2254486 0.0495477782,3.21091955 L0.0495477782,3.13827431 C0.608729847,3.15280336 1.17499017,3.13827431 1.73417224,3.15280336 C1.76248525,4.16257218 1.72001573,5.17960552 1.74832875,6.18937434 C2.31458907,6.21843244 2.87377114,6.21843244 3.44003146,6.18937434 C3.46126622,4.14077861 3.45418797,2.08491835 3.44003146,0.0217935716 Z" id="Path"></path>
                    </g>
                    <g id="_x23_797b7d80" transform="translate(139.229257, 3.123745)" fill="#797B7D" opacity="0.5">
                        <path d="M0.0424695242,0.0290580955 L0.133378615,0.0217935716 C0.142469524,1.61998882 0.124287706,3.21818408 0.142469524,4.8091148 L0.0606513424,4.80185028 C0.0333786151,3.21091955 0.0697422515,1.61998882 0.0424695242,0.0290580955 Z" id="Path"></path>
                    </g>
                    <g id="_x23_5c656e7f" transform="translate(146.944554, 3.123745)" fill="#5C656E" opacity="0.5">
                        <path d="M1.74125049,0.0217935716 L1.81203303,0.0145290477 C1.81203303,1.53281454 1.82618954,3.05110003 1.80495478,4.57665004 C1.21745969,4.55485647 0.622886355,4.60570814 0.0424695242,4.54759194 C0.608729847,4.54032742 1.17499017,4.56938552 1.74125049,4.5330629 C1.755407,3.02930646 1.74125049,1.52555001 1.74125049,0.0217935716 Z" id="Path"></path>
                    </g>
                    <g id="_x23_34679aff" transform="translate(23.287456, 3.777552)" fill="#34679A">
                        <path d="M1.34486827,0.058116191 C2.15886748,-0.159819525 3.0790405,0.290580955 3.36924892,1.11147215 C3.72316162,1.96142145 3.27723162,3.02204193 2.45615415,3.37073908 C1.62799843,3.75575884 0.54502556,3.34168098 0.205269367,2.46993812 C-0.233582383,1.52555001 0.332677939,0.268787383 1.34486827,0.058116191 L1.34486827,0.058116191 Z M1.40857255,0.254258336 C0.566260322,0.45040048 0.00707825403,1.47469835 0.360990956,2.30285407 C0.637042863,3.11648074 1.62799843,3.5305586 2.38537161,3.16006789 C3.10735352,2.84769336 3.45418797,1.9178343 3.16397955,1.17685287 C2.90208415,0.4867231 2.11639796,0.058116191 1.40857255,0.254258336 Z" id="Shape"></path>
                    </g>
                    <g id="_x23_ec2426ff" transform="translate(19.677546, 4.431360)" fill="#EC2426">
                        <path d="M0.0283130161,0.159819525 C0.0495477782,-0.0290580955 0.290208415,-0.00726452387 0.396382226,0.0871742865 C0.721981911,0.326903574 1.00511207,0.632013577 1.3236335,0.886271913 C1.53598112,1.07514953 1.80495478,1.24949811 1.88989383,1.54007906 C1.87573732,6.79232982 1.86865906,12.0518451 1.88989383,17.3040959 L1.95359811,17.3186249 C2.2791978,17.3694766 2.61187574,17.3404185 2.93747542,17.347683 C6.56861974,17.347683 10.2068423,17.347683 13.8379866,17.347683 C14.2556036,17.3549475 14.489186,17.7762899 14.7723162,18.0305483 C15.0129768,18.3429228 15.5013763,18.5608585 15.4518285,19.0185235 C10.4545812,19.0475816 5.45733386,19.0185235 0.460086512,19.0330525 C0.290208415,19.0403171 0.0424695242,19.0039945 0.0283130161,18.7787942 C0.0495477782,12.5676263 0.0495477782,6.36372291 0.0283130161,0.159819525 L0.0283130161,0.159819525 Z M0.276051907,0.326903574 C0.304364923,6.4799553 0.283130161,12.633007 0.283130161,18.7860587 L0.346834448,18.7860587 L0.297286669,18.7933233 C0.587495085,18.858704 0.8777035,18.8514395 1.17499017,18.8441749 C5.84663783,18.8369104 10.5182855,18.8514395 15.1899331,18.8369104 L15.1899331,18.7642652 L15.1262289,18.7642652 C14.7298466,18.3719809 14.3900904,17.9143159 13.9300039,17.6019413 C13.7672041,17.5438252 13.597326,17.5220316 13.4274479,17.5292961 C9.54856469,17.5583542 5.66968148,17.500238 1.79787652,17.5583542 C1.69170271,17.4639154 1.67754621,17.3113604 1.67046795,17.180599 C1.67046795,12.0954322 1.67046795,7.00300101 1.67046795,1.9178343 C1.67046795,1.72895668 1.63507668,1.51828549 1.47935509,1.39478858 C1.08297287,1.02429787 0.672434133,0.682865244 0.276051907,0.326903574 Z" id="Shape"></path>
                        <path d="M2.64726701,2.36823478 C2.93747542,2.64428669 3.17813606,2.97845479 3.4329532,3.29082931 C5.30161227,5.58641886 7.17027133,7.88927293 9.03185214,10.192127 C9.23004326,10.4173272 9.1309477,10.7297018 9.10971294,10.9984891 C9.32206056,11.0420763 9.54856469,11.0493408 9.75383405,11.1292506 C9.93079041,11.260012 10.0440425,11.4561541 10.1785293,11.6305027 C11.1907196,12.9599106 12.2099882,14.2893185 13.2221785,15.6187263 C13.4486827,15.9311009 13.7247346,16.2071528 13.8804562,16.570379 C10.1360598,16.6067016 6.39166339,16.5631144 2.64726701,16.5921725 L2.64726701,16.5267918 C2.66850177,11.8048513 2.66850177,7.0901753 2.64726701,2.36823478 L2.64726701,2.36823478 Z M4.9123083,8.66657698 C4.88399528,9.22594532 4.93354306,9.77804913 4.94062131,10.3374175 C5.49980338,10.3955337 6.0660637,10.3810046 6.62524577,10.344682 C6.70310657,9.6763458 6.02359418,9.36397127 5.65552497,8.93536436 C5.47856862,8.68837055 5.19543846,8.63025436 4.9123083,8.66657698 L4.9123083,8.66657698 Z M4.99016909,12.6693296 C4.86983877,13.1705818 4.91938655,13.6936275 4.94769957,14.2021442 L5.01848211,14.2021442 L4.95477782,14.2094087 C5.50688164,14.3256411 6.0660637,14.2384668 6.62524577,14.2675249 C7.64451435,14.2312023 8.6850177,14.3474347 9.69720802,14.2094087 C9.71136453,13.9188277 9.69012977,13.5991887 9.44946913,13.4030465 C9.12386945,13.1342592 8.88320881,12.618478 8.40188753,12.6693296 C7.26228864,12.6693296 6.12976799,12.6548006 4.99016909,12.6693296 Z" id="Shape"></path>
                    </g>
                    <path d="M19.6520448,5.68812219 C19.6613229,5.31763148 19.5963764,4.94714076 19.7262693,4.59117909 C19.7448255,10.7950825 19.7448255,17.0062504 19.7262693,23.2101538 C19.5963764,22.8469276 19.6520448,22.4764369 19.6520448,22.1059461 C19.6520448,16.6357597 19.6520448,11.1583087 19.6520448,5.68812219 Z" id="Path" fill="#7F7272" opacity="0.5"></path>
                    <path d="M63.9520252,26.5255265 C64.6315376,26.3905066 65.3252064,26.4917715 66.0117971,26.4664553 C66.7974833,26.5002103 67.5902477,26.3989453 68.3688557,26.5170877 C66.8965788,26.576159 65.4172238,26.5592815 63.9520252,26.5255265 Z" id="Path" fill="#7F7272" opacity="0.5"></path>
                    <g id="_x23_4755637f" transform="translate(137.459693, 4.504005)" fill="#475563" opacity="0.5">
                        <path d="M0.0637042863,0.0653807149 C0.141565081,1.64904692 0.0424695242,3.23271312 0.10617381,4.81637933 C1.12544239,4.85270195 2.15178923,4.81637933 3.17105781,4.83090838 C3.00117971,4.88176004 2.83130161,4.90355361 2.66142352,4.88902457 C1.79079827,4.867231 0.927251278,4.90355361 0.0566260322,4.867231 C0.0637042863,3.27630027 0.0495477782,1.67084049 0.0637042863,0.0653807149 Z" id="Path"></path>
                    </g>
                    <g id="_x23_7d5e5e80" transform="translate(21.517892, 5.956910)" fill="#7D5E5E" opacity="0.5">
                        <path d="M0.0524723883,0.00726452387 C0.196637998,0.435871432 0.119749673,0.886271913 0.129360714,1.32940787 C0.138971754,6.15305172 0.110138632,10.969431 0.138971754,15.7858104 L0.0524723883,15.7712813 C0.033250307,10.5190306 0.0428613476,5.26677981 0.0524723883,0.00726452387 Z" id="Path"></path>
                    </g>
                    <g id="_x23_f37778ff" transform="translate(22.225718, 6.756007)" fill="#F37778">
                        <path d="M0.0367918343,0.457665004 C0.045107979,0.31963905 0.0700564132,0.181613097 0.111637137,0.0435871432 C0.136585571,4.75826314 0.128269426,9.48020366 0.111637137,14.1948796 C-0.0214211786,13.8607116 0.045107979,13.5120144 0.0367918343,13.1633173 C0.045107979,8.93536436 0.0534241237,4.69288242 0.0367918343,0.457665004 Z" id="Path"></path>
                    </g>
                    <g id="_x23_59626c7f" transform="translate(107.731026, 7.918331)" fill="#59626C" opacity="0.5">
                        <path d="M6.62524577,0.0290580955 L6.68895006,0.0217935716 C6.68895006,0.501252147 6.68895006,0.980710723 6.6818718,1.4601693 C4.46637829,1.48196287 2.25796304,1.46743382 0.0424695242,1.46743382 L0.0424695242,1.39478858 C2.23672827,1.40931763 4.43098702,1.41658216 6.62524577,1.39478858 C6.64648053,0.944388104 6.64648053,0.4867231 6.62524577,0.0290580955 Z" id="Path"></path>
                    </g>
                    <g id="_x23_555f6a7f" transform="translate(145.812033, 7.918331)" fill="#555F6A" opacity="0.5">
                        <path d="M6.9296107,0.0145290477 C6.99331498,0.493987623 6.9437672,0.980710723 6.95792371,1.46743382 C5.07510814,1.49649192 3.19229257,1.47469835 1.309477,1.48196287 C0.8777035,1.46743382 0.43885175,1.54007906 0.0212347621,1.42384668 C2.31458907,1.40931763 4.61502163,1.43837573 6.90837593,1.40931763 C6.9437672,0.93712358 6.9296107,0.472194052 6.9296107,0.0145290477 Z" id="Path"></path>
                    </g>
                    <path d="M95.0680299,17.8561997 C96.2854896,16.0981849 98.387731,15.0448289 100.482894,15.0811516 C101.657884,15.0666225 102.832875,15.364468 103.859221,15.960159 C105.423516,16.8609599 106.556036,18.4954778 106.938262,20.2825507 C105.791585,20.2825507 104.644908,20.3188733 103.49823,20.2680216 C103.25757,19.7231823 102.953205,19.1928721 102.507275,18.7933233 C101.367676,17.8271416 99.583956,17.7980835 98.4372788,18.7642652 C96.6252458,20.2534926 96.6960283,23.4644121 98.5080613,24.9245814 C99.4565474,25.7164145 100.86512,25.8834986 101.948093,25.2732786 C102.705466,24.9173169 103.186787,24.198129 103.554856,23.4571476 C104.687377,23.5225283 105.826976,23.4280895 106.959497,23.5079993 C106.605584,24.6703231 106.039324,25.7817952 105.182855,26.6317445 C104.007865,27.9103007 102.287849,28.6585467 100.574912,28.607695 C98.7062525,28.6440176 96.8305151,27.830391 95.5705859,26.4138088 C93.4683445,24.1618064 93.2701534,20.3624604 95.0680299,17.8561997 Z" id="Path" fill="#ED2024"></path>
                    <path d="M50.2272906,15.3499389 C51.5013763,15.3499389 52.7754621,15.3499389 54.0495478,15.3499389 C55.1395989,18.7570006 56.1588675,22.1785914 57.2418403,25.5856531 C57.6240661,25.5929176 58.01337,25.5856531 58.3955958,25.6074467 C58.3318915,27.4381067 58.3955958,29.2760312 58.3602045,31.1066912 C57.3975619,31.1139558 56.4278411,31.1139558 55.4651986,31.1066912 C55.4581203,30.2640065 55.4722768,29.4140572 55.4581203,28.5713724 C53.2426268,28.5641079 51.0271333,28.5641079 48.8116398,28.5713724 C48.8045615,29.4140572 48.8116398,30.2640065 48.8045615,31.1066912 C47.8206842,31.1066912 46.8368069,31.1212203 45.8600079,31.0994267 C45.8670861,29.2687667 45.8670861,27.4381067 45.8600079,25.6001821 C46.2493118,25.5856531 46.6456941,25.5929176 47.034998,25.5856531 C48.1179709,22.1785914 49.1443177,18.7570006 50.2272906,15.3499389 L50.2272906,15.3499389 Z M52.1525757,19.4471304 C52.0534801,19.6941242 51.9756193,19.9483826 51.9119151,20.2026409 C51.4305938,22.0042428 50.8855682,23.7840512 50.4184035,25.5856531 C51.5792371,25.6001821 52.7400708,25.5929176 53.9009044,25.5856531 C53.3063311,23.5443219 52.7825403,21.4811971 52.1525757,19.4471304 Z" id="Shape" fill="#ED2024"></path>
                    <path d="M64.9075895,15.364468 C65.7640582,15.3426744 66.6276052,15.3426744 67.4840739,15.364468 C69.1757766,19.6941242 70.8533228,24.0237804 72.5308691,28.3534367 C71.3417224,28.3534367 70.1454974,28.3752303 68.9492725,28.3389076 C68.7723162,27.7214231 68.5387338,27.1329967 68.3688557,26.5155121 C67.5902477,26.4065443 66.7974833,26.4937186 66.0117971,26.471925 C65.3252064,26.4937186 64.6315376,26.4065443 63.9520252,26.5227767 C63.7679906,27.1402612 63.5485647,27.7577457 63.3220606,28.3534367 C62.1612269,28.3534367 61.0003932,28.3679657 59.8395596,28.3461722 C61.495871,24.0092514 63.2158867,19.6941242 64.9075895,15.364468 L64.9075895,15.364468 Z M64.9288242,23.7913157 C65.7711365,23.8203738 66.6134487,23.8131093 67.4557609,23.7913157 C67.0735352,22.3384109 66.6417617,20.9000352 66.2029099,19.468924 C65.7428234,20.8927707 65.3252064,22.3384109 64.9288242,23.7913157 Z" id="Shape" fill="#ED2024"></path>
                    <path d="M78.0448289,15.3499389 C79.2906017,15.3499389 80.5434526,15.3499389 81.7892253,15.3499389 C83.1482501,19.6795952 84.5001966,24.0092514 85.8309084,28.3461722 C84.705466,28.3534367 83.5800236,28.3679657 82.4545812,28.3389076 C81.697208,25.5638595 80.8973653,22.8033404 80.1329139,20.0282923 C80.0692096,19.788563 79.9984271,19.5560983 79.9064098,19.330898 C79.049941,22.3311464 78.214707,25.3313947 77.3723948,28.3389076 C76.2469524,28.3679657 75.12151,28.3461722 73.9960676,28.3461722 C75.3480142,24.0165159 76.6858042,19.6795952 78.0448289,15.3499389 Z" id="Path" fill="#ED2024"></path>
                    <path d="M128.51278,15.3499389 C129.362171,15.3426744 130.204483,15.3426744 131.053873,15.3499389 C132.52615,19.0403171 133.927645,22.7597533 135.385765,26.4501314 C135.619347,27.082145 135.895399,27.6996295 136.100669,28.3389076 C134.9186,28.3534367 133.736532,28.3461722 132.554463,28.3461722 C132.349194,27.7650102 132.158081,27.1765838 131.981125,26.5881574 C131.974046,26.5590993 131.952812,26.5082476 131.938655,26.4791895 C130.933543,26.4210733 129.935509,26.471925 128.930397,26.4573959 C128.463232,26.471925 127.974833,26.3847507 127.521825,26.5300412 C127.351947,27.1402612 127.118364,27.7286876 126.920173,28.3243786 C125.752261,28.3679657 124.577271,28.3389076 123.409359,28.3389076 C124.888714,24.4959745 126.417617,20.6675704 127.911129,16.8246373 C128.116398,16.3451787 128.286276,15.8293975 128.51278,15.3499389 L128.51278,15.3499389 Z M128.505702,23.7913157 C129.355092,23.8203738 130.204483,23.8131093 131.053873,23.7985802 C130.636256,22.367469 130.261109,20.9218288 129.786866,19.5125111 C129.312623,20.9145642 128.923319,22.3602045 128.505702,23.7913157 Z" id="Shape" fill="#ED2024"></path>
                    <path d="M137.580024,15.3499389 C140.31223,15.3499389 143.044436,15.3499389 145.776642,15.3499389 C145.78372,16.3161206 145.797877,17.2823023 145.776642,18.248484 C144.955564,18.2848066 144.134487,18.2266904 143.313409,18.263013 L143.306331,18.3283937 C143.292175,21.6700747 143.306331,25.0044912 143.299253,28.3461722 C142.21628,28.3534367 141.133307,28.3534367 140.050334,28.3461722 C140.036178,25.0044912 140.057413,21.6700747 140.043256,18.3283937 L140.036178,18.263013 C139.2151,18.2339549 138.401101,18.2848066 137.580024,18.248484 C137.565867,17.2895668 137.572945,16.3161206 137.580024,15.3499389 Z" id="Path" fill="#ED2024"></path>
                    <path d="M158.31223,15.3499389 C159.16162,15.3499389 160.003932,15.3499389 160.853323,15.3499389 C162.573339,19.6723306 164.222572,24.0237804 165.935509,28.3534367 C164.739284,28.3534367 163.550138,28.3679657 162.360991,28.3461722 C162.148643,27.7432167 161.943374,27.1475257 161.780574,26.5300412 C161.412505,26.4138088 161.023201,26.4646605 160.648053,26.4646605 C159.918993,26.4646605 159.182855,26.4646605 158.453795,26.4646605 C158.078647,26.4646605 157.689343,26.4138088 157.328352,26.5373057 C157.165552,27.1547902 156.924892,27.7359521 156.733779,28.3389076 C155.558789,28.3607012 154.390877,28.3534367 153.222965,28.3461722 C154.907589,24.0092514 156.599292,19.6723306 158.31223,15.3499389 L158.31223,15.3499389 Z M158.31223,23.7985802 C159.16162,23.8131093 160.011011,23.8203738 160.860401,23.7913157 C160.456941,22.3456754 160.032245,20.9145642 159.614628,19.4761885 C159.119151,20.8927707 158.736925,22.35294 158.31223,23.7985802 Z" id="Shape" fill="#ED2024"></path>
                    <path d="M171.654738,15.364468 C172.935902,15.3281454 174.224145,15.3572035 175.505309,15.3499389 C176.581203,18.7570006 177.600472,22.1858559 178.697601,25.5929176 C179.093983,25.5929176 179.483287,25.5856531 179.87967,25.6001821 C179.872591,27.4308421 179.872591,29.2615022 179.87967,31.0994267 C178.895792,31.1284848 177.911915,31.1066912 176.935116,31.1066912 C176.920959,30.2640065 176.942194,29.4140572 176.928038,28.5713724 C174.705466,28.5641079 172.482894,28.5641079 170.260322,28.5713724 C170.232009,29.4140572 170.253244,30.2567419 170.253244,31.0994267 C169.269367,31.1284848 168.28549,31.1066912 167.308691,31.1066912 C167.301612,29.2687667 167.301612,27.4308421 167.308691,25.5929176 C167.705073,25.5929176 168.101455,25.5929176 168.497837,25.5856531 C169.545419,22.1785914 170.607157,18.7715297 171.654738,15.364468 L171.654738,15.364468 Z M171.845851,25.5929176 C173.006685,25.6001821 174.167519,25.6001821 175.321274,25.5929176 C174.76917,23.5370574 174.209988,21.4811971 173.59418,19.4471304 C172.964215,21.4811971 172.433346,23.5443219 171.845851,25.5929176 Z" id="Shape" fill="#ED2024"></path>
                    <path d="M109.974833,15.4153197 C111.029493,15.3862616 112.091231,15.3862616 113.145891,15.4153197 C113.181282,17.8416706 113.145891,20.2680216 113.160047,22.7016371 C113.195438,22.6507854 113.23083,22.5999338 113.266221,22.5563466 C114.915454,20.1735828 116.543453,17.7762899 118.206842,15.4007906 C119.063311,15.4371132 119.926858,15.3717325 120.783327,15.4225842 C120.790405,19.7086533 120.790405,24.0019869 120.783327,28.288056 C119.75698,28.3389076 118.723555,28.2735269 117.697208,28.3171141 C117.640582,25.876234 117.697208,23.435354 117.668895,20.994474 C115.970114,23.4280895 114.327959,25.9052921 112.643335,28.3461722 C111.744396,28.3679657 110.852536,28.3316431 109.953598,28.3679657 C109.988989,24.0528385 109.953598,19.7304468 109.974833,15.4153197 Z" id="Path" fill="#ED2024"></path>
                    <g id="_x23_b47576b9" transform="translate(109.854503, 15.328145)" fill="#B47576" opacity="0.73">
                        <path d="M0.0566260322,0.0290580955 C1.16083366,0.0145290477 2.26504129,0.0290580955 3.36924892,0.0217935716 C3.36924892,1.98321502 3.36924892,3.94463646 3.36924892,5.90605791 C3.36924892,6.34192934 3.34801416,6.7850653 3.4187967,7.22093673 C3.38340543,7.2717884 3.34801416,7.31537554 3.31262289,7.36622721 C3.29138812,4.93987623 3.32677939,2.51352526 3.29846638,0.0799097626 C2.24380653,0.0508516671 1.18206842,0.0508516671 0.127408573,0.0799097626 C0.10617381,4.39503694 0.141565081,8.71742865 0.10617381,13.0325558 C0.0283130161,12.6983877 0.0637042863,12.3424261 0.0637042863,12.0009934 C0.0566260322,8.01276983 0.0637042863,4.0172817 0.0566260322,0.0290580955 Z" id="Path"></path>
                    </g>
                    <g id="_x23_f47a7cff" transform="translate(117.640582, 15.328145)" fill="#F47A7C">
                        <path d="M0.50963429,0.0653807149 C1.41565081,-0.0217935716 2.32166732,0.0435871432 3.22768384,0.0290580955 C3.22768384,4.35871432 3.22768384,8.69563508 3.22768384,13.0252913 C2.15178923,13.0107623 1.07589461,13.0688784 2.27373675e-13,12.9962332 L0.0637042863,12.9889687 C1.09005112,12.9453815 2.12347621,13.0107623 3.14982304,12.9599106 C3.1569013,8.67384151 3.1569013,4.3805079 3.14982304,0.0944388104 C2.28627605,0.0435871432 1.42980731,0.101703334 0.573338576,0.0726452387 L0.50963429,0.0653807149 Z" id="Path"></path>
                    </g>
                    <g id="_x23_7d64657f" transform="translate(137.459693, 15.328145)" fill="#7D6465" opacity="0.5">
                        <path d="M0.0495477782,0.0217935716 L0.120330319,0.0217935716 C0.113252064,0.987975247 0.10617381,1.95415692 0.120330319,2.92760312 C0.941407786,2.96392574 1.755407,2.91307407 2.57648447,2.94213217 L2.58356272,3.00751288 C1.74125049,2.97845479 0.898938262,3.00751288 0.0566260322,2.98571931 C0.0283130161,1.99774407 0.0424695242,1.00976882 0.0495477782,0.0217935716 Z" id="Path"></path>
                    </g>
                    <g id="_x23_7b56577f" transform="translate(143.263862, 15.328145)" fill="#7B5657" opacity="0.5">
                        <path d="M2.51278018,0.0217935716 L2.58356272,0.0217935716 C2.58356272,1.00976882 2.59771923,1.99774407 2.57648447,2.98571931 C1.73417224,3.01477741 0.891860008,2.98571931 0.0424695242,3.00024836 L0.0495477782,2.93486764 C0.870625246,2.89854503 1.69170271,2.95666122 2.51278018,2.9203386 C2.53401494,1.95415692 2.51985843,0.987975247 2.51278018,0.0217935716 Z" id="Path"></path>
                    </g>
                    <g id="_x23_7e5e5e81" transform="translate(24.632324, 18.597181)" fill="#7E5E5E" opacity="0.51">
                        <path d="M0.0637042863,0.0394987209 C1.62092017,0.0216147384 3.18521431,0.0126727471 4.7424302,0.0394987209 C3.73023987,0.209396555 2.69681479,0.0663246947 1.67046795,0.111034651 C1.11128588,0.0842086772 0.552103814,0.182570581 0,0.0394987209 L0.0637042863,0.0394987209 Z" id="Path"></path>
                    </g>
                    <g id="_x23_f37d7efe" transform="translate(21.447110, 21.938862)" fill="#F37D7E">
                        <path d="M0.0212347621,0.050189223 C3.90011797,-0.0205456482 7.77192293,0.050189223 11.6508061,0.0148217874 C11.8206842,0.00597992846 11.9905623,0.0325055052 12.1533622,0.103240376 C8.49390484,0.129765953 4.8344475,0.103240376 1.17499017,0.112082235 C0.792764451,0.112082235 0.40346048,0.138607812 0.0212347621,0.050189223 Z" id="Path"></path>
                    </g>
                    <g id="_x23_f58485ff" transform="translate(19.960676, 23.173831)" fill="#F58485">
                        <path d="M0.0637042863,0.0420458169 C4.99016909,-0.0129877214 9.90955564,0.0420458169 14.8360204,0.0145290477 L14.8997247,0.0145290477 L14.8997247,0.106251612 C10.2280771,0.124596124 5.55642941,0.106251612 0.884781754,0.115423868 C0.594573339,0.115423868 0.297286669,0.133768381 0.00707825403,0.0512180733 L0.0637042863,0.0420458169 Z" id="Path"></path>
                    </g>
                    <g id="_x23_7a55567d" transform="translate(103.484074, 23.391767)" fill="#7A5556" opacity="0.49">
                        <path d="M0.00707825403,0.0653807149 C0.91309477,-0.0363226194 1.82618954,0.0508516671 2.73220606,0.0217935716 C3.00117971,0.0435871432 3.31262289,-0.0508516671 3.54620527,0.13076143 L3.46834448,0.13076143 C2.33582383,0.0508516671 1.19622493,0.145290477 0.0637042863,0.0799097626 L0.00707825403,0.0653807149 Z" id="Path"></path>
                    </g>
                    <g id="_x23_f58284ff" transform="translate(58.324813, 25.498479)" fill="#F58284">
                        <path d="M0.0770637964,0.116232382 L0.085431738,0.0508516671 C0.185847038,1.90330525 0.102167621,3.76302337 0.127271446,5.61547695 L0.0435920298,5.60821243 C0.0686958547,3.77755241 -0.00661562013,1.9468924 0.0770637964,0.116232382 Z" id="Path"></path>
                    </g>
                    <g id="_x23_80717181" transform="translate(127.479355, 26.442867)" fill="#807171" opacity="0.51">
                        <path d="M0.0495477782,0.0944388104 C0.502556036,-0.0508516671 0.990955564,0.0363226194 1.45812033,0.0217935716 C2.4632324,0.0363226194 3.46834448,-0.0145290477 4.46637829,0.0435871432 C4.47345655,0.0726452387 4.49469131,0.123496906 4.50884782,0.152555001 C3.02949273,0.0217935716 1.53598112,0.13076143 0.0495477782,0.0944388104 Z" id="Path"></path>
                    </g>
                    <g id="_x23_81727282" transform="translate(157.278805, 26.442867)" fill="#817272" opacity="0.51">
                        <path d="M0.0495477782,0.113350788 C0.410538734,-0.038043655 0.799842705,0.0242952331 1.17499017,0.0242952331 C1.90405033,0.0242952331 2.64018875,0.0242952331 3.36924892,0.0242952331 C3.74439638,0.0242952331 4.13370035,-0.038043655 4.50176956,0.104445232 C3.01533622,0.122256343 1.53598112,0.104445232 0.0495477782,0.113350788 Z" id="Path"></path>
                    </g>
                </g>
            </g>
        </g>
    </g>
</svg>