<svg xmlns="http://www.w3.org/2000/svg" width="251" height="165" viewBox="0 0 251 165">
  <g id="Group_82" data-name="Group 82" transform="translate(-1353 -369)">
    <g id="Group_35" data-name="Group 35" transform="translate(20 -46)">
      <g id="Rectangle_48" data-name="Rectangle 48" transform="translate(1419 415)" fill="#efefef" stroke="#e8e8e8" stroke-width="1">
        <rect width="79" height="79" rx="12" stroke="none"/>
        <rect x="0.5" y="0.5" width="78" height="78" rx="11.5" fill="none"/>
      </g>
      <text id="W" transform="translate(1445 457)" fill="#226d5d" font-size="35" font-family="Rubik-Regular, Rubik"><tspan x="0" y="0">W</tspan></text>
    </g>
    <g id="Group_68" data-name="Group 68" transform="translate(20 -35)">
      <g id="Group_69" data-name="Group 69" transform="translate(999 1915) rotate(-90)">
        <text id="_" data-name="&gt;" transform="translate(1449 467)" fill="#226d5d" font-size="20" font-family="Rubik-Regular, Rubik"><tspan x="0" y="0">&gt;</tspan></text>
      </g>
    </g>
    <g id="Group_37" data-name="Group 37" transform="translate(20 -46)">
      <g id="Rectangle_46" data-name="Rectangle 46" transform="translate(1419 501)" fill="#efefef" stroke="#e8e8e8" stroke-width="1">
        <rect width="79" height="79" rx="12" stroke="none"/>
        <rect x="0.5" y="0.5" width="78" height="78" rx="11.5" fill="none"/>
      </g>
      <text id="S" transform="translate(1448 543)" fill="#226d5d" font-size="35" font-family="Rubik-Regular, Rubik"><tspan x="0" y="0">S</tspan></text>
      <g id="Group_70" data-name="Group 70" transform="translate(2016 -900) rotate(90)">
        <text id="_2" data-name="&gt;" transform="translate(1453 564)" fill="#226d5d" font-size="20" font-family="Rubik-Regular, Rubik"><tspan x="0" y="0">&gt;</tspan></text>
      </g>
    </g>
    <g id="Group_38" data-name="Group 38" transform="translate(20 -46)">
      <g id="Rectangle_47" data-name="Rectangle 47" transform="translate(1505 501)" fill="#efefef" stroke="#e8e8e8" stroke-width="1">
        <rect width="79" height="79" rx="12" stroke="none"/>
        <rect x="0.5" y="0.5" width="78" height="78" rx="11.5" fill="none"/>
      </g>
      <text id="D" transform="translate(1533 543)" fill="#226d5d" font-size="35" font-family="Rubik-Regular, Rubik"><tspan x="0" y="0">D</tspan></text>
      <text id="_3" data-name="&gt;" transform="translate(1538 565)" fill="#226d5d" font-size="20" font-family="Rubik-Regular, Rubik"><tspan x="0" y="0">&gt;</tspan></text>
    </g>
    <g id="Group_36" data-name="Group 36" transform="translate(20 -46)">
      <g id="Rectangle_45" data-name="Rectangle 45" transform="translate(1333 501)" fill="#efefef" stroke="#e8e8e8" stroke-width="1">
        <rect width="79" height="79" rx="12" stroke="none"/>
        <rect x="0.5" y="0.5" width="78" height="78" rx="11.5" fill="none"/>
      </g>
      <text id="A" transform="translate(1361 543)" fill="#226d5d" font-size="35" font-family="Rubik-Regular, Rubik"><tspan x="0" y="0">A</tspan></text>
      <text id="_4" data-name="&lt;" transform="translate(1366 565)" fill="#226d5d" font-size="20" font-family="Rubik-Regular, Rubik"><tspan x="0" y="0">&lt;</tspan></text>
    </g>
  </g>
</svg>
