<?xml version="1.0" encoding="utf-8"?>
<!-- Generator: Adobe Illustrator 22.0.1, SVG Export Plug-In . SVG Version: 6.00 Build 0)  -->
<svg version="1.1" id="Layer_1" xmlns="http://www.w3.org/2000/svg" xmlns:xlink="http://www.w3.org/1999/xlink" x="0px" y="0px"
	 viewBox="0 0 1000 982.1" style="enable-background:new 0 0 1000 982.1;" xml:space="preserve">
<style type="text/css">
	.st0{fill:#720BAB;}
</style>
<g>
	<g>
		<g>
			<path class="st0" d="M684.1,184.2c0,12.6-1.3,25-3.6,37c-3.5,17.6-9.7,34.3-17.9,49.8l-0.1,0.2l-47.4,83.9l-11.6,20.1
				c-6.8,11.8-19,18.3-31.8,18.3c-6.3,0-12.5-1.6-18.3-5c-17.5-10.1-23.4-32.5-13.5-50l53.6-93c2.4-3.6,4.7-7.5,6.7-11.6
				c0.2-0.6,0.5-1,0.7-1.6c6.9-14.4,10.9-30.8,10.9-48.1c0-61.5-49.8-111.3-111.3-111.3h-0.8c-61.5,0-111.3,49.8-111.3,111.3
				c0,17.2,4,33.5,10.9,48.1c0.2,0.6,0.5,1,0.7,1.6c1.9,4,4.2,7.8,6.7,11.6l53.6,93c10.1,17.5,4.1,39.9-13.5,50
				c-5.8,3.3-12.1,5-18.3,5c-12.6,0-25-6.5-31.8-18.3l-11.6-20.1l-47.4-83.9l-0.1-0.2c-8.2-15.5-14.3-32.1-18.1-49.8
				c-2.4-11.9-3.6-24.3-3.6-37c0-25.2,5.1-49.2,14.2-71.2C357.7,46.7,423.3,0,499.6,0c76.5,0,142.1,46.6,169.8,113
				C679.1,134.9,684.1,158.9,684.1,184.2z"/>
		</g>
		<path class="st0" d="M995,296.1l-91.4,164.1v0.1L717.4,785.4l81.5,141.5c10.1,17.6,4.1,40-13.5,50.3c-5.8,3.4-12.1,5-18.3,5
			c-12.7,0-25.1-6.7-32-18.4l-59.5-103.2c-7.4,13.1-12.2,20.1-19.3,30.5c-33.2,49.5-89.6,81.8-153.6,81.8c-50.4,0-100-21-134.3-58.1
			c-10.2-10.9-21.7-22.7-21.7-38.7c0-12.5,6.1-23.5,15.6-30.2l6.4-3.6l0,0c4.7-2.2,9.8-3.3,15.4-3.3c13.6,0,23.9,7.1,31.8,17.6
			c9.2,12.4,18.9,23,32.2,31.3c16.7,10.2,36.2,15.6,55.8,15.6c25.2,0,50.3-9.3,68.9-26.7c19.8-18.3,34.5-41.6,47-65.2
			c4.5-8.6,13.1-25.8,13.1-25.8L528.4,604.3l-28-48.6l-28.5,49.5c-6.8,11.9-13.8,23.9-20.6,35.8c-12.6,21.8-25,43.8-37.5,65.6
			c-7.4,12.7-14.8,25.5-22.3,38.1c-7.4,12.4-14.3,24.9-26,33.7c-11.5,8.6-26.3,12.5-40.6,12.1c-13.8-0.5-27.3-5.3-37.8-14.1
			c-12.1-9.8-18.9-24.6-26.9-37.5c-15.8-25.5-30.5-51.4-45.3-77.4c-5.9-10.5-11.6-21-17.7-31.4c-12.4-21.6-24.9-43-37.2-64.6
			c-13.1-22.6-26-45.1-39-67.8c-12.6-21.8-25.1-43.8-37.8-65.6c-11-19.3-22.3-38.8-33.5-58.1c-8.6-15-17.3-30.1-26-45.3
			c-5.2-9.1-10.3-18.1-15.6-27.2c-1-1.8-1.9-3.5-3.1-5.3c-10.2-17.6-4.1-40.1,13.5-50.3c17.6-10.2,40.1-4.1,50.4,13.5l238,413.6
			l14.4,25.1c2.7,4.7,9.3,4.7,12.1,0l14.4-25.1l109.8-190.8l18.6-32.2c10.7-18.4,37.3-18.4,48,0l18.6,32.2l110.8,192.3l0,0
			l14.4,25.1l0.1,0.1c2.7,4.1,10.5,4.4,13.5,0.5c0.1-0.2,0.2-0.5,0.5-0.7l14.4-25.1h-0.1l122.4-213.7h-0.1l112.6-201
			c2.3-4,5.1-7.3,8.4-9.9c6.7-5.6,15-8.5,23.5-8.5c6.3,0,12.6,1.6,18.4,5C999.1,255.8,1005.3,278.5,995,296.1z"/>
		<polygon class="st0" points="667.8,699.3 653.3,674.1 653.3,674.1 		"/>
		<path class="st0" d="M696.3,674.1l-14.4,25.1c-0.1,0.2-0.2,0.5-0.5,0.7l14.8-25.8L696.3,674.1L696.3,674.1z"/>
	</g>
</g>
</svg>
